<?xml version="1.0" encoding="utf-8"?>
<svg xmlns="http://www.w3.org/2000/svg" xmlns:xlink="http://www.w3.org/1999/xlink" width="600" height="400" viewBox="0 0 2400 1600">
<defs>
  <clipPath id="clip4300">
    <rect x="0" y="0" width="2400" height="1600"/>
  </clipPath>
</defs>
<polygon clip-path="url(#clip4300)" points="
0,1600 2400,1600 2400,0 0,0 
  " fill="#ffffff" fill-rule="evenodd" fill-opacity="1"/>
<defs>
  <clipPath id="clip4301">
    <rect x="480" y="0" width="1681" height="1600"/>
  </clipPath>
</defs>
<polygon clip-path="url(#clip4300)" points="
589.051,1425.62 1967.43,1425.62 1967.43,47.2441 589.051,47.2441 
  " fill="#ffffff" fill-rule="evenodd" fill-opacity="1"/>
<defs>
  <clipPath id="clip4302">
    <rect x="589" y="47" width="1379" height="1379"/>
  </clipPath>
</defs>
<polyline clip-path="url(#clip4302)" style="stroke:#000000; stroke-width:2; stroke-opacity:0.1; fill:none" points="
  632.125,1425.62 632.125,47.2441 
  "/>
<polyline clip-path="url(#clip4302)" style="stroke:#000000; stroke-width:2; stroke-opacity:0.1; fill:none" points="
  890.57,1425.62 890.57,47.2441 
  "/>
<polyline clip-path="url(#clip4302)" style="stroke:#000000; stroke-width:2; stroke-opacity:0.1; fill:none" points="
  1149.02,1425.62 1149.02,47.2441 
  "/>
<polyline clip-path="url(#clip4302)" style="stroke:#000000; stroke-width:2; stroke-opacity:0.1; fill:none" points="
  1407.46,1425.62 1407.46,47.2441 
  "/>
<polyline clip-path="url(#clip4302)" style="stroke:#000000; stroke-width:2; stroke-opacity:0.1; fill:none" points="
  1665.91,1425.62 1665.91,47.2441 
  "/>
<polyline clip-path="url(#clip4302)" style="stroke:#000000; stroke-width:2; stroke-opacity:0.1; fill:none" points="
  1924.35,1425.62 1924.35,47.2441 
  "/>
<polyline clip-path="url(#clip4302)" style="stroke:#000000; stroke-width:2; stroke-opacity:0.1; fill:none" points="
  589.051,1253.32 1967.43,1253.32 
  "/>
<polyline clip-path="url(#clip4302)" style="stroke:#000000; stroke-width:2; stroke-opacity:0.1; fill:none" points="
  589.051,994.877 1967.43,994.877 
  "/>
<polyline clip-path="url(#clip4302)" style="stroke:#000000; stroke-width:2; stroke-opacity:0.1; fill:none" points="
  589.051,736.431 1967.43,736.431 
  "/>
<polyline clip-path="url(#clip4302)" style="stroke:#000000; stroke-width:2; stroke-opacity:0.1; fill:none" points="
  589.051,477.986 1967.43,477.986 
  "/>
<polyline clip-path="url(#clip4302)" style="stroke:#000000; stroke-width:2; stroke-opacity:0.1; fill:none" points="
  589.051,219.541 1967.43,219.541 
  "/>
<polyline clip-path="url(#clip4300)" style="stroke:#000000; stroke-width:4; stroke-opacity:1; fill:none" points="
  589.051,1425.62 1967.43,1425.62 
  "/>
<polyline clip-path="url(#clip4300)" style="stroke:#000000; stroke-width:4; stroke-opacity:1; fill:none" points="
  589.051,1425.62 589.051,47.2441 
  "/>
<polyline clip-path="url(#clip4300)" style="stroke:#000000; stroke-width:4; stroke-opacity:1; fill:none" points="
  632.125,1425.62 632.125,1404.94 
  "/>
<polyline clip-path="url(#clip4300)" style="stroke:#000000; stroke-width:4; stroke-opacity:1; fill:none" points="
  890.57,1425.62 890.57,1404.94 
  "/>
<polyline clip-path="url(#clip4300)" style="stroke:#000000; stroke-width:4; stroke-opacity:1; fill:none" points="
  1149.02,1425.62 1149.02,1404.94 
  "/>
<polyline clip-path="url(#clip4300)" style="stroke:#000000; stroke-width:4; stroke-opacity:1; fill:none" points="
  1407.46,1425.62 1407.46,1404.94 
  "/>
<polyline clip-path="url(#clip4300)" style="stroke:#000000; stroke-width:4; stroke-opacity:1; fill:none" points="
  1665.91,1425.62 1665.91,1404.94 
  "/>
<polyline clip-path="url(#clip4300)" style="stroke:#000000; stroke-width:4; stroke-opacity:1; fill:none" points="
  1924.35,1425.62 1924.35,1404.94 
  "/>
<polyline clip-path="url(#clip4300)" style="stroke:#000000; stroke-width:4; stroke-opacity:1; fill:none" points="
  589.051,1253.32 609.727,1253.32 
  "/>
<polyline clip-path="url(#clip4300)" style="stroke:#000000; stroke-width:4; stroke-opacity:1; fill:none" points="
  589.051,994.877 609.727,994.877 
  "/>
<polyline clip-path="url(#clip4300)" style="stroke:#000000; stroke-width:4; stroke-opacity:1; fill:none" points="
  589.051,736.431 609.727,736.431 
  "/>
<polyline clip-path="url(#clip4300)" style="stroke:#000000; stroke-width:4; stroke-opacity:1; fill:none" points="
  589.051,477.986 609.727,477.986 
  "/>
<polyline clip-path="url(#clip4300)" style="stroke:#000000; stroke-width:4; stroke-opacity:1; fill:none" points="
  589.051,219.541 609.727,219.541 
  "/>
<g clip-path="url(#clip4300)">
<text style="fill:#000000; fill-opacity:1; font-family:Arial,Helvetica Neue,Helvetica,sans-serif; font-size:48px; text-anchor:middle;" transform="rotate(0, 632.125, 1479.62)" x="632.125" y="1479.62">-2</text>
</g>
<g clip-path="url(#clip4300)">
<text style="fill:#000000; fill-opacity:1; font-family:Arial,Helvetica Neue,Helvetica,sans-serif; font-size:48px; text-anchor:middle;" transform="rotate(0, 890.57, 1479.62)" x="890.57" y="1479.62">-1</text>
</g>
<g clip-path="url(#clip4300)">
<text style="fill:#000000; fill-opacity:1; font-family:Arial,Helvetica Neue,Helvetica,sans-serif; font-size:48px; text-anchor:middle;" transform="rotate(0, 1149.02, 1479.62)" x="1149.02" y="1479.62">0</text>
</g>
<g clip-path="url(#clip4300)">
<text style="fill:#000000; fill-opacity:1; font-family:Arial,Helvetica Neue,Helvetica,sans-serif; font-size:48px; text-anchor:middle;" transform="rotate(0, 1407.46, 1479.62)" x="1407.46" y="1479.62">1</text>
</g>
<g clip-path="url(#clip4300)">
<text style="fill:#000000; fill-opacity:1; font-family:Arial,Helvetica Neue,Helvetica,sans-serif; font-size:48px; text-anchor:middle;" transform="rotate(0, 1665.91, 1479.62)" x="1665.91" y="1479.62">2</text>
</g>
<g clip-path="url(#clip4300)">
<text style="fill:#000000; fill-opacity:1; font-family:Arial,Helvetica Neue,Helvetica,sans-serif; font-size:48px; text-anchor:middle;" transform="rotate(0, 1924.35, 1479.62)" x="1924.35" y="1479.62">3</text>
</g>
<g clip-path="url(#clip4300)">
<text style="fill:#000000; fill-opacity:1; font-family:Arial,Helvetica Neue,Helvetica,sans-serif; font-size:48px; text-anchor:end;" transform="rotate(0, 565.051, 1270.82)" x="565.051" y="1270.82">-2</text>
</g>
<g clip-path="url(#clip4300)">
<text style="fill:#000000; fill-opacity:1; font-family:Arial,Helvetica Neue,Helvetica,sans-serif; font-size:48px; text-anchor:end;" transform="rotate(0, 565.051, 1012.38)" x="565.051" y="1012.38">-1</text>
</g>
<g clip-path="url(#clip4300)">
<text style="fill:#000000; fill-opacity:1; font-family:Arial,Helvetica Neue,Helvetica,sans-serif; font-size:48px; text-anchor:end;" transform="rotate(0, 565.051, 753.931)" x="565.051" y="753.931">0</text>
</g>
<g clip-path="url(#clip4300)">
<text style="fill:#000000; fill-opacity:1; font-family:Arial,Helvetica Neue,Helvetica,sans-serif; font-size:48px; text-anchor:end;" transform="rotate(0, 565.051, 495.486)" x="565.051" y="495.486">1</text>
</g>
<g clip-path="url(#clip4300)">
<text style="fill:#000000; fill-opacity:1; font-family:Arial,Helvetica Neue,Helvetica,sans-serif; font-size:48px; text-anchor:end;" transform="rotate(0, 565.051, 237.041)" x="565.051" y="237.041">2</text>
</g>
<g clip-path="url(#clip4300)">
<text style="fill:#000000; fill-opacity:1; font-family:Arial,Helvetica Neue,Helvetica,sans-serif; font-size:66px; text-anchor:middle;" transform="rotate(0, 1278.24, 1559.48)" x="1278.24" y="1559.48">Re(x)</text>
</g>
<g clip-path="url(#clip4300)">
<text style="fill:#000000; fill-opacity:1; font-family:Arial,Helvetica Neue,Helvetica,sans-serif; font-size:66px; text-anchor:middle;" transform="rotate(-90, 474.616, 736.431)" x="474.616" y="736.431">Im(x)</text>
</g>
<polygon clip-path="url(#clip4302)" points="
1278.24,736.431 1278.24,-1331.13 1278.24,-1331.13 1238.46,-1330.75 1198.69,-1329.6 1158.95,-1327.69 1119.26,-1325.01 1079.62,-1321.57 1040.06,-1317.37 1000.59,-1312.4 
  961.217,-1306.68 918.366,-1299.57 875.673,-1291.56 833.158,-1282.66 790.84,-1272.86 748.737,-1262.18 706.867,-1250.61 665.249,-1238.17 623.903,-1224.86 588.965,-1212.85 
  554.247,-1200.23 519.761,-1186.98 485.517,-1173.12 451.525,-1158.66 417.798,-1143.58 384.346,-1127.91 351.178,-1111.64 312.559,-1091.76 274.366,-1071.07 236.615,-1049.58 
  199.325,-1027.3 162.511,-1004.25 126.189,-980.425 90.376,-955.844 55.0871,-930.516 23.5623,-906.919 -7.5073,-882.726 -38.1106,-857.945 -68.2363,-832.587 -97.8737,-806.659 
  -127.012,-780.171 -155.64,-753.134 -183.749,-725.556 -211.608,-697.155 -238.916,-668.223 -265.662,-638.771 -291.837,-608.811 -317.43,-578.352 -342.433,-547.406 -366.835,-515.985 
  -390.628,-484.1 -415.901,-448.771 -440.425,-412.919 -464.191,-376.56 -487.188,-339.71 -509.406,-302.385 -530.835,-264.601 -551.465,-226.375 -571.288,-187.725 -587.505,-154.532 
  -603.125,-121.055 -618.146,-87.3037 -632.561,-53.2898 -646.365,-19.0238 -659.556,15.4834 -672.128,50.2208 -684.077,85.1773 -697.325,126.545 -709.701,168.182 -721.2,210.07 
  -731.817,252.19 -741.546,294.524 -750.384,337.052 -758.326,379.758 -765.37,422.62 -770.976,461.597 -775.838,500.674 -779.956,539.836 -783.326,579.069 -785.949,618.36 
  -787.824,657.693 -788.949,697.055 -789.324,736.431 -788.941,776.213 -787.793,815.981 -785.88,855.719 -783.202,895.412 -779.762,935.047 -775.559,974.609 -770.596,1014.08 
  -764.874,1053.45 -757.764,1096.3 -749.754,1139 -740.85,1181.51 -731.054,1223.83 -720.371,1265.93 -708.806,1307.8 -696.365,1349.42 -683.051,1390.77 -671.047,1425.7 
  -658.421,1460.42 -645.176,1494.91 -631.318,1529.15 -616.849,1563.14 -601.776,1596.87 -586.103,1630.32 -569.834,1663.49 -549.951,1702.11 -529.26,1740.3 -507.772,1778.05 
  -485.496,1815.34 -462.441,1852.16 -438.618,1888.48 -414.037,1924.29 -388.709,1959.58 -365.112,1991.11 -340.919,2022.18 -316.139,2052.78 -290.78,2082.91 -264.852,2112.54 
  -238.364,2141.68 -211.327,2170.31 -183.749,2198.42 -155.348,2226.28 -126.416,2253.59 -96.9645,2280.33 -67.0036,2306.51 -36.5446,2332.1 -5.59888,2357.1 25.8222,2381.5 
  57.707,2405.3 93.0357,2430.57 128.887,2455.09 165.247,2478.86 202.097,2501.86 239.422,2524.08 277.206,2545.5 315.432,2566.13 354.082,2585.96 387.275,2602.17 
  420.752,2617.8 454.503,2632.82 488.517,2647.23 522.783,2661.04 557.29,2674.23 592.028,2686.8 626.984,2698.75 668.352,2711.99 709.989,2724.37 751.877,2735.87 
  793.997,2746.49 836.331,2756.22 878.859,2765.05 921.565,2773 964.427,2780.04 1003.4,2785.65 1042.48,2790.51 1081.64,2794.63 1120.88,2798 1160.17,2800.62 
  1199.5,2802.49 1238.86,2803.62 1278.24,2803.99 1278.24,2803.99 1278.24,736.431 1278.24,736.431 
  " fill="#009af9" fill-rule="evenodd" fill-opacity="1"/>
<polyline clip-path="url(#clip4302)" style="stroke:#000000; stroke-width:8; stroke-opacity:1; fill:none" points="
  1278.24,736.431 1278.24,-1331.13 1238.46,-1330.75 1198.69,-1329.6 1158.95,-1327.69 1119.26,-1325.01 1079.62,-1321.57 1040.06,-1317.37 1000.59,-1312.4 
  961.217,-1306.68 918.366,-1299.57 875.673,-1291.56 833.158,-1282.66 790.84,-1272.86 748.737,-1262.18 706.867,-1250.61 665.249,-1238.17 623.903,-1224.86 588.965,-1212.85 
  554.247,-1200.23 519.761,-1186.98 485.517,-1173.12 451.525,-1158.66 417.798,-1143.58 384.346,-1127.91 351.178,-1111.64 312.559,-1091.76 274.366,-1071.07 236.615,-1049.58 
  199.325,-1027.3 162.511,-1004.25 126.189,-980.425 90.376,-955.844 55.0871,-930.516 23.5623,-906.919 -7.5073,-882.726 -38.1106,-857.945 -68.2363,-832.587 -97.8737,-806.659 
  -127.012,-780.171 -155.64,-753.134 -183.749,-725.556 -211.608,-697.155 -238.916,-668.223 -265.662,-638.771 -291.837,-608.811 -317.43,-578.352 -342.433,-547.406 -366.835,-515.985 
  -390.628,-484.1 -415.901,-448.771 -440.425,-412.919 -464.191,-376.56 -487.188,-339.71 -509.406,-302.385 -530.835,-264.601 -551.465,-226.375 -571.288,-187.725 -587.505,-154.532 
  -603.125,-121.055 -618.146,-87.3037 -632.561,-53.2898 -646.365,-19.0238 -659.556,15.4834 -672.128,50.2208 -684.077,85.1773 -697.325,126.545 -709.701,168.182 -721.2,210.07 
  -731.817,252.19 -741.546,294.524 -750.384,337.052 -758.326,379.758 -765.37,422.62 -770.976,461.597 -775.838,500.674 -779.956,539.836 -783.326,579.069 -785.949,618.36 
  -787.824,657.693 -788.949,697.055 -789.324,736.431 -788.941,776.213 -787.793,815.981 -785.88,855.719 -783.202,895.412 -779.762,935.047 -775.559,974.609 -770.596,1014.08 
  -764.874,1053.45 -757.764,1096.3 -749.754,1139 -740.85,1181.51 -731.054,1223.83 -720.371,1265.93 -708.806,1307.8 -696.365,1349.42 -683.051,1390.77 -671.047,1425.7 
  -658.421,1460.42 -645.176,1494.91 -631.318,1529.15 -616.849,1563.14 -601.776,1596.87 -586.103,1630.32 -569.834,1663.49 -549.951,1702.11 -529.26,1740.3 -507.772,1778.05 
  -485.496,1815.34 -462.441,1852.16 -438.618,1888.48 -414.037,1924.29 -388.709,1959.58 -365.112,1991.11 -340.919,2022.18 -316.139,2052.78 -290.78,2082.91 -264.852,2112.54 
  -238.364,2141.68 -211.327,2170.31 -183.749,2198.42 -155.348,2226.28 -126.416,2253.59 -96.9645,2280.33 -67.0036,2306.51 -36.5446,2332.1 -5.59888,2357.1 25.8222,2381.5 
  57.707,2405.3 93.0357,2430.57 128.887,2455.09 165.247,2478.86 202.097,2501.86 239.422,2524.08 277.206,2545.5 315.432,2566.13 354.082,2585.96 387.275,2602.17 
  420.752,2617.8 454.503,2632.82 488.517,2647.23 522.783,2661.04 557.29,2674.23 592.028,2686.8 626.984,2698.75 668.352,2711.99 709.989,2724.37 751.877,2735.87 
  793.997,2746.49 836.331,2756.22 878.859,2765.05 921.565,2773 964.427,2780.04 1003.4,2785.65 1042.48,2790.51 1081.64,2794.63 1120.88,2798 1160.17,2800.62 
  1199.5,2802.49 1238.86,2803.62 1278.24,2803.99 1278.24,736.431 
  "/>
</svg>
