<?xml version="1.0" encoding="utf-8"?>
<svg xmlns="http://www.w3.org/2000/svg" xmlns:xlink="http://www.w3.org/1999/xlink" width="600" height="400" viewBox="0 0 2400 1600">
<defs>
  <clipPath id="clip5800">
    <rect x="0" y="0" width="2400" height="1600"/>
  </clipPath>
</defs>
<polygon clip-path="url(#clip5800)" points="
0,1600 2400,1600 2400,0 0,0 
  " fill="#ffffff" fill-rule="evenodd" fill-opacity="1"/>
<defs>
  <clipPath id="clip5801">
    <rect x="480" y="0" width="1681" height="1600"/>
  </clipPath>
</defs>
<polygon clip-path="url(#clip5800)" points="
270.627,1425.62 2352.76,1425.62 2352.76,47.2441 270.627,47.2441 
  " fill="#ffffff" fill-rule="evenodd" fill-opacity="1"/>
<defs>
  <clipPath id="clip5802">
    <rect x="270" y="47" width="2083" height="1379"/>
  </clipPath>
</defs>
<polyline clip-path="url(#clip5802)" style="stroke:#000000; stroke-width:2; stroke-opacity:0.1; fill:none" points="
  560.932,1425.62 560.932,47.2441 
  "/>
<polyline clip-path="url(#clip5802)" style="stroke:#000000; stroke-width:2; stroke-opacity:0.1; fill:none" points="
  936.312,1425.62 936.312,47.2441 
  "/>
<polyline clip-path="url(#clip5802)" style="stroke:#000000; stroke-width:2; stroke-opacity:0.1; fill:none" points="
  1311.69,1425.62 1311.69,47.2441 
  "/>
<polyline clip-path="url(#clip5802)" style="stroke:#000000; stroke-width:2; stroke-opacity:0.1; fill:none" points="
  1687.07,1425.62 1687.07,47.2441 
  "/>
<polyline clip-path="url(#clip5802)" style="stroke:#000000; stroke-width:2; stroke-opacity:0.1; fill:none" points="
  2062.45,1425.62 2062.45,47.2441 
  "/>
<polyline clip-path="url(#clip5802)" style="stroke:#000000; stroke-width:2; stroke-opacity:0.1; fill:none" points="
  270.627,1299.5 2352.76,1299.5 
  "/>
<polyline clip-path="url(#clip5802)" style="stroke:#000000; stroke-width:2; stroke-opacity:0.1; fill:none" points="
  270.627,1111.81 2352.76,1111.81 
  "/>
<polyline clip-path="url(#clip5802)" style="stroke:#000000; stroke-width:2; stroke-opacity:0.1; fill:none" points="
  270.627,924.121 2352.76,924.121 
  "/>
<polyline clip-path="url(#clip5802)" style="stroke:#000000; stroke-width:2; stroke-opacity:0.1; fill:none" points="
  270.627,736.431 2352.76,736.431 
  "/>
<polyline clip-path="url(#clip5802)" style="stroke:#000000; stroke-width:2; stroke-opacity:0.1; fill:none" points="
  270.627,548.742 2352.76,548.742 
  "/>
<polyline clip-path="url(#clip5802)" style="stroke:#000000; stroke-width:2; stroke-opacity:0.1; fill:none" points="
  270.627,361.052 2352.76,361.052 
  "/>
<polyline clip-path="url(#clip5802)" style="stroke:#000000; stroke-width:2; stroke-opacity:0.1; fill:none" points="
  270.627,173.362 2352.76,173.362 
  "/>
<polyline clip-path="url(#clip5800)" style="stroke:#000000; stroke-width:4; stroke-opacity:1; fill:none" points="
  270.627,1425.62 2352.76,1425.62 
  "/>
<polyline clip-path="url(#clip5800)" style="stroke:#000000; stroke-width:4; stroke-opacity:1; fill:none" points="
  270.627,1425.62 270.627,47.2441 
  "/>
<polyline clip-path="url(#clip5800)" style="stroke:#000000; stroke-width:4; stroke-opacity:1; fill:none" points="
  560.932,1425.62 560.932,1404.94 
  "/>
<polyline clip-path="url(#clip5800)" style="stroke:#000000; stroke-width:4; stroke-opacity:1; fill:none" points="
  936.312,1425.62 936.312,1404.94 
  "/>
<polyline clip-path="url(#clip5800)" style="stroke:#000000; stroke-width:4; stroke-opacity:1; fill:none" points="
  1311.69,1425.62 1311.69,1404.94 
  "/>
<polyline clip-path="url(#clip5800)" style="stroke:#000000; stroke-width:4; stroke-opacity:1; fill:none" points="
  1687.07,1425.62 1687.07,1404.94 
  "/>
<polyline clip-path="url(#clip5800)" style="stroke:#000000; stroke-width:4; stroke-opacity:1; fill:none" points="
  2062.45,1425.62 2062.45,1404.94 
  "/>
<polyline clip-path="url(#clip5800)" style="stroke:#000000; stroke-width:4; stroke-opacity:1; fill:none" points="
  270.627,1299.5 301.858,1299.5 
  "/>
<polyline clip-path="url(#clip5800)" style="stroke:#000000; stroke-width:4; stroke-opacity:1; fill:none" points="
  270.627,1111.81 301.858,1111.81 
  "/>
<polyline clip-path="url(#clip5800)" style="stroke:#000000; stroke-width:4; stroke-opacity:1; fill:none" points="
  270.627,924.121 301.858,924.121 
  "/>
<polyline clip-path="url(#clip5800)" style="stroke:#000000; stroke-width:4; stroke-opacity:1; fill:none" points="
  270.627,736.431 301.858,736.431 
  "/>
<polyline clip-path="url(#clip5800)" style="stroke:#000000; stroke-width:4; stroke-opacity:1; fill:none" points="
  270.627,548.742 301.858,548.742 
  "/>
<polyline clip-path="url(#clip5800)" style="stroke:#000000; stroke-width:4; stroke-opacity:1; fill:none" points="
  270.627,361.052 301.858,361.052 
  "/>
<polyline clip-path="url(#clip5800)" style="stroke:#000000; stroke-width:4; stroke-opacity:1; fill:none" points="
  270.627,173.362 301.858,173.362 
  "/>
<g clip-path="url(#clip5800)">
<text style="fill:#000000; fill-opacity:1; font-family:Arial,Helvetica Neue,Helvetica,sans-serif; font-size:48px; text-anchor:middle;" transform="rotate(0, 560.932, 1479.62)" x="560.932" y="1479.62">-1.0</text>
</g>
<g clip-path="url(#clip5800)">
<text style="fill:#000000; fill-opacity:1; font-family:Arial,Helvetica Neue,Helvetica,sans-serif; font-size:48px; text-anchor:middle;" transform="rotate(0, 936.312, 1479.62)" x="936.312" y="1479.62">-0.5</text>
</g>
<g clip-path="url(#clip5800)">
<text style="fill:#000000; fill-opacity:1; font-family:Arial,Helvetica Neue,Helvetica,sans-serif; font-size:48px; text-anchor:middle;" transform="rotate(0, 1311.69, 1479.62)" x="1311.69" y="1479.62">0.0</text>
</g>
<g clip-path="url(#clip5800)">
<text style="fill:#000000; fill-opacity:1; font-family:Arial,Helvetica Neue,Helvetica,sans-serif; font-size:48px; text-anchor:middle;" transform="rotate(0, 1687.07, 1479.62)" x="1687.07" y="1479.62">0.5</text>
</g>
<g clip-path="url(#clip5800)">
<text style="fill:#000000; fill-opacity:1; font-family:Arial,Helvetica Neue,Helvetica,sans-serif; font-size:48px; text-anchor:middle;" transform="rotate(0, 2062.45, 1479.62)" x="2062.45" y="1479.62">1.0</text>
</g>
<g clip-path="url(#clip5800)">
<text style="fill:#000000; fill-opacity:1; font-family:Arial,Helvetica Neue,Helvetica,sans-serif; font-size:48px; text-anchor:end;" transform="rotate(0, 246.627, 1317)" x="246.627" y="1317">-0.75</text>
</g>
<g clip-path="url(#clip5800)">
<text style="fill:#000000; fill-opacity:1; font-family:Arial,Helvetica Neue,Helvetica,sans-serif; font-size:48px; text-anchor:end;" transform="rotate(0, 246.627, 1129.31)" x="246.627" y="1129.31">-0.50</text>
</g>
<g clip-path="url(#clip5800)">
<text style="fill:#000000; fill-opacity:1; font-family:Arial,Helvetica Neue,Helvetica,sans-serif; font-size:48px; text-anchor:end;" transform="rotate(0, 246.627, 941.621)" x="246.627" y="941.621">-0.25</text>
</g>
<g clip-path="url(#clip5800)">
<text style="fill:#000000; fill-opacity:1; font-family:Arial,Helvetica Neue,Helvetica,sans-serif; font-size:48px; text-anchor:end;" transform="rotate(0, 246.627, 753.931)" x="246.627" y="753.931">0.00</text>
</g>
<g clip-path="url(#clip5800)">
<text style="fill:#000000; fill-opacity:1; font-family:Arial,Helvetica Neue,Helvetica,sans-serif; font-size:48px; text-anchor:end;" transform="rotate(0, 246.627, 566.242)" x="246.627" y="566.242">0.25</text>
</g>
<g clip-path="url(#clip5800)">
<text style="fill:#000000; fill-opacity:1; font-family:Arial,Helvetica Neue,Helvetica,sans-serif; font-size:48px; text-anchor:end;" transform="rotate(0, 246.627, 378.552)" x="246.627" y="378.552">0.50</text>
</g>
<g clip-path="url(#clip5800)">
<text style="fill:#000000; fill-opacity:1; font-family:Arial,Helvetica Neue,Helvetica,sans-serif; font-size:48px; text-anchor:end;" transform="rotate(0, 246.627, 190.862)" x="246.627" y="190.862">0.75</text>
</g>
<g clip-path="url(#clip5800)">
<text style="fill:#000000; fill-opacity:1; font-family:Arial,Helvetica Neue,Helvetica,sans-serif; font-size:66px; text-anchor:middle;" transform="rotate(0, 1311.69, 1559.48)" x="1311.69" y="1559.48">Re(x)</text>
</g>
<g clip-path="url(#clip5800)">
<text style="fill:#000000; fill-opacity:1; font-family:Arial,Helvetica Neue,Helvetica,sans-serif; font-size:66px; text-anchor:middle;" transform="rotate(-90, 89.2861, 736.431)" x="89.2861" y="736.431">Im(x)</text>
</g>
<polyline clip-path="url(#clip5802)" style="stroke:#009af9; stroke-width:8; stroke-opacity:1; fill:none" points="
  2062.45,736.431 2020.74,712.351 2020.74,664.19 1979.03,688.27 1937.32,664.19 1937.32,616.028 
  1979.03,591.948 1937.32,567.867 1937.32,519.706 1895.62,543.786 1853.91,519.706 
  1853.91,567.867 1812.2,591.948 1770.49,567.867 1770.49,519.706 1728.78,543.786 
  1687.07,519.706 1687.07,471.545 1728.78,447.464 1687.07,423.383 1687.07,375.222 
  1728.78,351.141 1770.49,375.222 1770.49,327.061 1812.2,302.98 1770.49,278.9 
  1770.49,230.738 1728.78,254.819 1687.07,230.738 1687.07,182.577 1728.78,158.497 
  1687.07,134.416 1687.07,86.2547 1645.36,110.335 1603.65,86.2547 1603.65,134.416 
  1561.94,158.497 1520.24,134.416 1520.24,86.2547 1478.53,110.335 1436.82,86.2547 
  1436.82,134.416 1395.11,158.497 1436.82,182.577 1436.82,230.738 1395.11,254.819 
  1353.4,230.738 1353.4,278.9 1311.69,302.98 1269.98,278.9 1269.98,230.738 
  1228.27,254.819 1186.56,230.738 1186.56,182.577 1228.27,158.497 1186.56,134.416 
  1186.56,86.2547 1144.86,110.335 1103.15,86.2547 1103.15,134.416 1061.44,158.497 
  1019.73,134.416 1019.73,86.2547 978.02,110.335 936.312,86.2547 936.312,134.416 
  894.603,158.497 936.312,182.577 936.312,230.738 894.603,254.819 852.894,230.738 
  852.894,278.9 811.185,302.98 852.894,327.061 852.894,375.222 894.603,351.141 
  936.312,375.222 936.312,423.383 894.603,447.464 936.312,471.545 936.312,519.706 
  894.603,543.786 852.894,519.706 852.894,567.867 811.185,591.948 769.476,567.867 
  769.476,519.706 727.767,543.786 686.058,519.706 686.058,567.867 644.35,591.948 
  686.058,616.028 686.058,664.19 644.35,688.27 602.641,664.19 602.641,712.351 
  560.932,736.431 602.641,760.512 602.641,808.673 644.35,784.593 686.058,808.673 
  686.058,856.834 644.35,880.915 686.058,904.996 686.058,953.157 727.767,929.076 
  769.476,953.157 769.476,904.996 811.185,880.915 852.894,904.996 852.894,953.157 
  894.603,929.076 936.312,953.157 936.312,1001.32 894.603,1025.4 936.312,1049.48 
  936.312,1097.64 894.603,1121.72 852.894,1097.64 852.894,1145.8 811.185,1169.88 
  852.894,1193.96 852.894,1242.12 894.603,1218.04 936.312,1242.12 936.312,1290.29 
  894.603,1314.37 936.312,1338.45 936.312,1386.61 978.02,1362.53 1019.73,1386.61 
  1019.73,1338.45 1061.44,1314.37 1103.15,1338.45 1103.15,1386.61 1144.86,1362.53 
  1186.56,1386.61 1186.56,1338.45 1228.27,1314.37 1186.56,1290.29 1186.56,1242.12 
  1228.27,1218.04 1269.98,1242.12 1269.98,1193.96 1311.69,1169.88 1353.4,1193.96 
  1353.4,1242.12 1395.11,1218.04 1436.82,1242.12 1436.82,1290.29 1395.11,1314.37 
  1436.82,1338.45 1436.82,1386.61 1478.53,1362.53 1520.24,1386.61 1520.24,1338.45 
  1561.94,1314.37 1603.65,1338.45 1603.65,1386.61 1645.36,1362.53 1687.07,1386.61 
  1687.07,1338.45 1728.78,1314.37 1687.07,1290.29 1687.07,1242.12 1728.78,1218.04 
  1770.49,1242.12 1770.49,1193.96 1812.2,1169.88 1770.49,1145.8 1770.49,1097.64 
  1728.78,1121.72 1687.07,1097.64 1687.07,1049.48 1728.78,1025.4 1687.07,1001.32 
  1687.07,953.157 1728.78,929.076 1770.49,953.157 1770.49,904.996 1812.2,880.915 
  1853.91,904.996 1853.91,953.157 1895.62,929.076 1937.32,953.157 1937.32,904.996 
  1979.03,880.915 1937.32,856.834 1937.32,808.673 1979.03,784.593 2020.74,808.673 
  2020.74,760.512 2062.45,736.431 
  "/>
</svg>
