<?xml version="1.0" encoding="utf-8"?>
<svg xmlns="http://www.w3.org/2000/svg" xmlns:xlink="http://www.w3.org/1999/xlink" width="600" height="400" viewBox="0 0 2400 1600">
<defs>
  <clipPath id="clip420">
    <rect x="0" y="0" width="2400" height="1600"/>
  </clipPath>
</defs>
<path clip-path="url(#clip420)" d="M0 1600 L2400 1600 L2400 0 L0 0  Z" fill="#ffffff" fill-rule="evenodd" fill-opacity="1"/>
<defs>
  <clipPath id="clip421">
    <rect x="480" y="0" width="1681" height="1600"/>
  </clipPath>
</defs>
<path clip-path="url(#clip420)" d="M212.459 1423.18 L2352.76 1423.18 L2352.76 47.2441 L212.459 47.2441  Z" fill="#ffffff" fill-rule="evenodd" fill-opacity="1"/>
<defs>
  <clipPath id="clip422">
    <rect x="212" y="47" width="2141" height="1377"/>
  </clipPath>
</defs>
<polyline clip-path="url(#clip422)" style="stroke:#000000; stroke-linecap:round; stroke-linejoin:round; stroke-width:2; stroke-opacity:0.1; fill:none" points="471.325,1423.18 471.325,47.2441 "/>
<polyline clip-path="url(#clip422)" style="stroke:#000000; stroke-linecap:round; stroke-linejoin:round; stroke-width:2; stroke-opacity:0.1; fill:none" points="876.966,1423.18 876.966,47.2441 "/>
<polyline clip-path="url(#clip422)" style="stroke:#000000; stroke-linecap:round; stroke-linejoin:round; stroke-width:2; stroke-opacity:0.1; fill:none" points="1282.61,1423.18 1282.61,47.2441 "/>
<polyline clip-path="url(#clip422)" style="stroke:#000000; stroke-linecap:round; stroke-linejoin:round; stroke-width:2; stroke-opacity:0.1; fill:none" points="1688.25,1423.18 1688.25,47.2441 "/>
<polyline clip-path="url(#clip422)" style="stroke:#000000; stroke-linecap:round; stroke-linejoin:round; stroke-width:2; stroke-opacity:0.1; fill:none" points="2093.89,1423.18 2093.89,47.2441 "/>
<polyline clip-path="url(#clip420)" style="stroke:#000000; stroke-linecap:round; stroke-linejoin:round; stroke-width:4; stroke-opacity:1; fill:none" points="212.459,1423.18 2352.76,1423.18 "/>
<polyline clip-path="url(#clip420)" style="stroke:#000000; stroke-linecap:round; stroke-linejoin:round; stroke-width:4; stroke-opacity:1; fill:none" points="471.325,1423.18 471.325,1404.28 "/>
<polyline clip-path="url(#clip420)" style="stroke:#000000; stroke-linecap:round; stroke-linejoin:round; stroke-width:4; stroke-opacity:1; fill:none" points="876.966,1423.18 876.966,1404.28 "/>
<polyline clip-path="url(#clip420)" style="stroke:#000000; stroke-linecap:round; stroke-linejoin:round; stroke-width:4; stroke-opacity:1; fill:none" points="1282.61,1423.18 1282.61,1404.28 "/>
<polyline clip-path="url(#clip420)" style="stroke:#000000; stroke-linecap:round; stroke-linejoin:round; stroke-width:4; stroke-opacity:1; fill:none" points="1688.25,1423.18 1688.25,1404.28 "/>
<polyline clip-path="url(#clip420)" style="stroke:#000000; stroke-linecap:round; stroke-linejoin:round; stroke-width:4; stroke-opacity:1; fill:none" points="2093.89,1423.18 2093.89,1404.28 "/>
<path clip-path="url(#clip420)" d="M417.853 1468.75 L447.528 1468.75 L447.528 1472.69 L417.853 1472.69 L417.853 1468.75 Z" fill="#000000" fill-rule="nonzero" fill-opacity="1" /><path clip-path="url(#clip420)" d="M457.667 1451.02 L476.024 1451.02 L476.024 1454.96 L461.95 1454.96 L461.95 1463.43 Q462.968 1463.08 463.987 1462.92 Q465.005 1462.73 466.024 1462.73 Q471.811 1462.73 475.19 1465.9 Q478.57 1469.08 478.57 1474.49 Q478.57 1480.07 475.098 1483.17 Q471.625 1486.25 465.306 1486.25 Q463.13 1486.25 460.862 1485.88 Q458.616 1485.51 456.209 1484.77 L456.209 1480.07 Q458.292 1481.2 460.514 1481.76 Q462.737 1482.32 465.213 1482.32 Q469.218 1482.32 471.556 1480.21 Q473.894 1478.1 473.894 1474.49 Q473.894 1470.88 471.556 1468.77 Q469.218 1466.67 465.213 1466.67 Q463.338 1466.67 461.463 1467.08 Q459.612 1467.5 457.667 1468.38 L457.667 1451.02 Z" fill="#000000" fill-rule="nonzero" fill-opacity="1" /><path clip-path="url(#clip420)" d="M487.783 1479.7 L492.667 1479.7 L492.667 1485.58 L487.783 1485.58 L487.783 1479.7 Z" fill="#000000" fill-rule="nonzero" fill-opacity="1" /><path clip-path="url(#clip420)" d="M512.852 1454.1 Q509.241 1454.1 507.412 1457.66 Q505.607 1461.2 505.607 1468.33 Q505.607 1475.44 507.412 1479.01 Q509.241 1482.55 512.852 1482.55 Q516.486 1482.55 518.292 1479.01 Q520.121 1475.44 520.121 1468.33 Q520.121 1461.2 518.292 1457.66 Q516.486 1454.1 512.852 1454.1 M512.852 1450.39 Q518.662 1450.39 521.718 1455 Q524.796 1459.58 524.796 1468.33 Q524.796 1477.06 521.718 1481.67 Q518.662 1486.25 512.852 1486.25 Q507.042 1486.25 503.963 1481.67 Q500.908 1477.06 500.908 1468.33 Q500.908 1459.58 503.963 1455 Q507.042 1450.39 512.852 1450.39 Z" fill="#000000" fill-rule="nonzero" fill-opacity="1" /><path clip-path="url(#clip420)" d="M823.992 1468.75 L853.667 1468.75 L853.667 1472.69 L823.992 1472.69 L823.992 1468.75 Z" fill="#000000" fill-rule="nonzero" fill-opacity="1" /><path clip-path="url(#clip420)" d="M867.788 1481.64 L884.107 1481.64 L884.107 1485.58 L862.163 1485.58 L862.163 1481.64 Q864.825 1478.89 869.408 1474.26 Q874.015 1469.61 875.195 1468.27 Q877.441 1465.74 878.32 1464.01 Q879.223 1462.25 879.223 1460.56 Q879.223 1457.8 877.278 1456.07 Q875.357 1454.33 872.255 1454.33 Q870.056 1454.33 867.603 1455.09 Q865.172 1455.86 862.394 1457.41 L862.394 1452.69 Q865.218 1451.55 867.672 1450.97 Q870.126 1450.39 872.163 1450.39 Q877.533 1450.39 880.728 1453.08 Q883.922 1455.77 883.922 1460.26 Q883.922 1462.39 883.112 1464.31 Q882.325 1466.2 880.218 1468.8 Q879.64 1469.47 876.538 1472.69 Q873.436 1475.88 867.788 1481.64 Z" fill="#000000" fill-rule="nonzero" fill-opacity="1" /><path clip-path="url(#clip420)" d="M893.922 1479.7 L898.806 1479.7 L898.806 1485.58 L893.922 1485.58 L893.922 1479.7 Z" fill="#000000" fill-rule="nonzero" fill-opacity="1" /><path clip-path="url(#clip420)" d="M909.038 1451.02 L927.394 1451.02 L927.394 1454.96 L913.32 1454.96 L913.32 1463.43 Q914.338 1463.08 915.357 1462.92 Q916.375 1462.73 917.394 1462.73 Q923.181 1462.73 926.561 1465.9 Q929.94 1469.08 929.94 1474.49 Q929.94 1480.07 926.468 1483.17 Q922.996 1486.25 916.676 1486.25 Q914.5 1486.25 912.232 1485.88 Q909.987 1485.51 907.579 1484.77 L907.579 1480.07 Q909.663 1481.2 911.885 1481.76 Q914.107 1482.32 916.584 1482.32 Q920.588 1482.32 922.926 1480.21 Q925.264 1478.1 925.264 1474.49 Q925.264 1470.88 922.926 1468.77 Q920.588 1466.67 916.584 1466.67 Q914.709 1466.67 912.834 1467.08 Q910.982 1467.5 909.038 1468.38 L909.038 1451.02 Z" fill="#000000" fill-rule="nonzero" fill-opacity="1" /><path clip-path="url(#clip420)" d="M1259.99 1454.1 Q1256.38 1454.1 1254.55 1457.66 Q1252.75 1461.2 1252.75 1468.33 Q1252.75 1475.44 1254.55 1479.01 Q1256.38 1482.55 1259.99 1482.55 Q1263.63 1482.55 1265.43 1479.01 Q1267.26 1475.44 1267.26 1468.33 Q1267.26 1461.2 1265.43 1457.66 Q1263.63 1454.1 1259.99 1454.1 M1259.99 1450.39 Q1265.8 1450.39 1268.86 1455 Q1271.94 1459.58 1271.94 1468.33 Q1271.94 1477.06 1268.86 1481.67 Q1265.8 1486.25 1259.99 1486.25 Q1254.18 1486.25 1251.1 1481.67 Q1248.05 1477.06 1248.05 1468.33 Q1248.05 1459.58 1251.1 1455 Q1254.18 1450.39 1259.99 1450.39 Z" fill="#000000" fill-rule="nonzero" fill-opacity="1" /><path clip-path="url(#clip420)" d="M1280.15 1479.7 L1285.04 1479.7 L1285.04 1485.58 L1280.15 1485.58 L1280.15 1479.7 Z" fill="#000000" fill-rule="nonzero" fill-opacity="1" /><path clip-path="url(#clip420)" d="M1305.22 1454.1 Q1301.61 1454.1 1299.78 1457.66 Q1297.98 1461.2 1297.98 1468.33 Q1297.98 1475.44 1299.78 1479.01 Q1301.61 1482.55 1305.22 1482.55 Q1308.86 1482.55 1310.66 1479.01 Q1312.49 1475.44 1312.49 1468.33 Q1312.49 1461.2 1310.66 1457.66 Q1308.86 1454.1 1305.22 1454.1 M1305.22 1450.39 Q1311.03 1450.39 1314.09 1455 Q1317.17 1459.58 1317.17 1468.33 Q1317.17 1477.06 1314.09 1481.67 Q1311.03 1486.25 1305.22 1486.25 Q1299.41 1486.25 1296.33 1481.67 Q1293.28 1477.06 1293.28 1468.33 Q1293.28 1459.58 1296.33 1455 Q1299.41 1450.39 1305.22 1450.39 Z" fill="#000000" fill-rule="nonzero" fill-opacity="1" /><path clip-path="url(#clip420)" d="M1659.99 1481.64 L1676.3 1481.64 L1676.3 1485.58 L1654.36 1485.58 L1654.36 1481.64 Q1657.02 1478.89 1661.61 1474.26 Q1666.21 1469.61 1667.39 1468.27 Q1669.64 1465.74 1670.52 1464.01 Q1671.42 1462.25 1671.42 1460.56 Q1671.42 1457.8 1669.48 1456.07 Q1667.55 1454.33 1664.45 1454.33 Q1662.25 1454.33 1659.8 1455.09 Q1657.37 1455.86 1654.59 1457.41 L1654.59 1452.69 Q1657.42 1451.55 1659.87 1450.97 Q1662.32 1450.39 1664.36 1450.39 Q1669.73 1450.39 1672.92 1453.08 Q1676.12 1455.77 1676.12 1460.26 Q1676.12 1462.39 1675.31 1464.31 Q1674.52 1466.2 1672.42 1468.8 Q1671.84 1469.47 1668.74 1472.69 Q1665.63 1475.88 1659.99 1481.64 Z" fill="#000000" fill-rule="nonzero" fill-opacity="1" /><path clip-path="url(#clip420)" d="M1686.12 1479.7 L1691 1479.7 L1691 1485.58 L1686.12 1485.58 L1686.12 1479.7 Z" fill="#000000" fill-rule="nonzero" fill-opacity="1" /><path clip-path="url(#clip420)" d="M1701.23 1451.02 L1719.59 1451.02 L1719.59 1454.96 L1705.52 1454.96 L1705.52 1463.43 Q1706.54 1463.08 1707.55 1462.92 Q1708.57 1462.73 1709.59 1462.73 Q1715.38 1462.73 1718.76 1465.9 Q1722.14 1469.08 1722.14 1474.49 Q1722.14 1480.07 1718.67 1483.17 Q1715.19 1486.25 1708.87 1486.25 Q1706.7 1486.25 1704.43 1485.88 Q1702.18 1485.51 1699.78 1484.77 L1699.78 1480.07 Q1701.86 1481.2 1704.08 1481.76 Q1706.3 1482.32 1708.78 1482.32 Q1712.79 1482.32 1715.12 1480.21 Q1717.46 1478.1 1717.46 1474.49 Q1717.46 1470.88 1715.12 1468.77 Q1712.79 1466.67 1708.78 1466.67 Q1706.91 1466.67 1705.03 1467.08 Q1703.18 1467.5 1701.23 1468.38 L1701.23 1451.02 Z" fill="#000000" fill-rule="nonzero" fill-opacity="1" /><path clip-path="url(#clip420)" d="M2061.05 1451.02 L2079.41 1451.02 L2079.41 1454.96 L2065.34 1454.96 L2065.34 1463.43 Q2066.36 1463.08 2067.37 1462.92 Q2068.39 1462.73 2069.41 1462.73 Q2075.2 1462.73 2078.58 1465.9 Q2081.96 1469.08 2081.96 1474.49 Q2081.96 1480.07 2078.49 1483.17 Q2075.01 1486.25 2068.69 1486.25 Q2066.52 1486.25 2064.25 1485.88 Q2062 1485.51 2059.6 1484.77 L2059.6 1480.07 Q2061.68 1481.2 2063.9 1481.76 Q2066.12 1482.32 2068.6 1482.32 Q2072.61 1482.32 2074.94 1480.21 Q2077.28 1478.1 2077.28 1474.49 Q2077.28 1470.88 2074.94 1468.77 Q2072.61 1466.67 2068.6 1466.67 Q2066.73 1466.67 2064.85 1467.08 Q2063 1467.5 2061.05 1468.38 L2061.05 1451.02 Z" fill="#000000" fill-rule="nonzero" fill-opacity="1" /><path clip-path="url(#clip420)" d="M2091.17 1479.7 L2096.05 1479.7 L2096.05 1485.58 L2091.17 1485.58 L2091.17 1479.7 Z" fill="#000000" fill-rule="nonzero" fill-opacity="1" /><path clip-path="url(#clip420)" d="M2116.24 1454.1 Q2112.63 1454.1 2110.8 1457.66 Q2108.99 1461.2 2108.99 1468.33 Q2108.99 1475.44 2110.8 1479.01 Q2112.63 1482.55 2116.24 1482.55 Q2119.87 1482.55 2121.68 1479.01 Q2123.51 1475.44 2123.51 1468.33 Q2123.51 1461.2 2121.68 1457.66 Q2119.87 1454.1 2116.24 1454.1 M2116.24 1450.39 Q2122.05 1450.39 2125.11 1455 Q2128.18 1459.58 2128.18 1468.33 Q2128.18 1477.06 2125.11 1481.67 Q2122.05 1486.25 2116.24 1486.25 Q2110.43 1486.25 2107.35 1481.67 Q2104.3 1477.06 2104.3 1468.33 Q2104.3 1459.58 2107.35 1455 Q2110.43 1450.39 2116.24 1450.39 Z" fill="#000000" fill-rule="nonzero" fill-opacity="1" /><path clip-path="url(#clip420)" d="M1225.19 1545.76 Q1227.26 1546.46 1229.2 1548.76 Q1231.17 1551.05 1233.15 1555.06 L1239.67 1568.04 L1232.76 1568.04 L1226.68 1555.85 Q1224.33 1551.08 1222.1 1549.52 Q1219.91 1547.96 1216.09 1547.96 L1209.08 1547.96 L1209.08 1568.04 L1202.65 1568.04 L1202.65 1520.52 L1217.17 1520.52 Q1225.32 1520.52 1229.33 1523.93 Q1233.34 1527.34 1233.34 1534.21 Q1233.34 1538.7 1231.24 1541.66 Q1229.17 1544.62 1225.19 1545.76 M1209.08 1525.81 L1209.08 1542.68 L1217.17 1542.68 Q1221.81 1542.68 1224.17 1540.54 Q1226.56 1538.38 1226.56 1534.21 Q1226.56 1530.04 1224.17 1527.94 Q1221.81 1525.81 1217.17 1525.81 L1209.08 1525.81 Z" fill="#000000" fill-rule="nonzero" fill-opacity="1" /><path clip-path="url(#clip420)" d="M1275.26 1548.76 L1275.26 1551.62 L1248.33 1551.62 Q1248.71 1557.67 1251.96 1560.85 Q1255.23 1564 1261.06 1564 Q1264.43 1564 1267.58 1563.17 Q1270.77 1562.35 1273.89 1560.69 L1273.89 1566.23 Q1270.74 1567.57 1267.43 1568.27 Q1264.12 1568.97 1260.71 1568.97 Q1252.18 1568.97 1247.18 1564 Q1242.22 1559.04 1242.22 1550.57 Q1242.22 1541.82 1246.93 1536.69 Q1251.67 1531.54 1259.69 1531.54 Q1266.88 1531.54 1271.05 1536.18 Q1275.26 1540.8 1275.26 1548.76 M1269.4 1547.04 Q1269.33 1542.23 1266.69 1539.37 Q1264.08 1536.5 1259.75 1536.5 Q1254.85 1536.5 1251.89 1539.27 Q1248.96 1542.04 1248.52 1547.07 L1269.4 1547.04 Z" fill="#000000" fill-rule="nonzero" fill-opacity="1" /><path clip-path="url(#clip420)" d="M1298.94 1518.58 Q1294.67 1525.9 1292.6 1533.06 Q1290.53 1540.23 1290.53 1547.58 Q1290.53 1554.93 1292.6 1562.16 Q1294.7 1569.35 1298.94 1576.64 L1293.84 1576.64 Q1289.07 1569.16 1286.68 1561.93 Q1284.33 1554.71 1284.33 1547.58 Q1284.33 1540.48 1286.68 1533.29 Q1289.04 1526.09 1293.84 1518.58 L1298.94 1518.58 Z" fill="#000000" fill-rule="nonzero" fill-opacity="1" /><path clip-path="url(#clip420)" d="M1339.93 1532.4 L1327.04 1549.74 L1340.6 1568.04 L1333.69 1568.04 L1323.32 1554.04 L1312.94 1568.04 L1306.03 1568.04 L1319.88 1549.39 L1307.21 1532.4 L1314.12 1532.4 L1323.57 1545.1 L1333.02 1532.4 L1339.93 1532.4 Z" fill="#000000" fill-rule="nonzero" fill-opacity="1" /><path clip-path="url(#clip420)" d="M1347.95 1518.58 L1353.04 1518.58 Q1357.82 1526.09 1360.17 1533.29 Q1362.56 1540.48 1362.56 1547.58 Q1362.56 1554.71 1360.17 1561.93 Q1357.82 1569.16 1353.04 1576.64 L1347.95 1576.64 Q1352.18 1569.35 1354.25 1562.16 Q1356.35 1554.93 1356.35 1547.58 Q1356.35 1540.23 1354.25 1533.06 Q1352.18 1525.9 1347.95 1518.58 Z" fill="#000000" fill-rule="nonzero" fill-opacity="1" /><polyline clip-path="url(#clip422)" style="stroke:#000000; stroke-linecap:round; stroke-linejoin:round; stroke-width:2; stroke-opacity:0.1; fill:none" points="212.459,1384.24 2352.76,1384.24 "/>
<polyline clip-path="url(#clip422)" style="stroke:#000000; stroke-linecap:round; stroke-linejoin:round; stroke-width:2; stroke-opacity:0.1; fill:none" points="212.459,1059.73 2352.76,1059.73 "/>
<polyline clip-path="url(#clip422)" style="stroke:#000000; stroke-linecap:round; stroke-linejoin:round; stroke-width:2; stroke-opacity:0.1; fill:none" points="212.459,735.212 2352.76,735.212 "/>
<polyline clip-path="url(#clip422)" style="stroke:#000000; stroke-linecap:round; stroke-linejoin:round; stroke-width:2; stroke-opacity:0.1; fill:none" points="212.459,410.699 2352.76,410.699 "/>
<polyline clip-path="url(#clip422)" style="stroke:#000000; stroke-linecap:round; stroke-linejoin:round; stroke-width:2; stroke-opacity:0.1; fill:none" points="212.459,86.1857 2352.76,86.1857 "/>
<polyline clip-path="url(#clip420)" style="stroke:#000000; stroke-linecap:round; stroke-linejoin:round; stroke-width:4; stroke-opacity:1; fill:none" points="212.459,1423.18 212.459,47.2441 "/>
<polyline clip-path="url(#clip420)" style="stroke:#000000; stroke-linecap:round; stroke-linejoin:round; stroke-width:4; stroke-opacity:1; fill:none" points="212.459,1384.24 231.357,1384.24 "/>
<polyline clip-path="url(#clip420)" style="stroke:#000000; stroke-linecap:round; stroke-linejoin:round; stroke-width:4; stroke-opacity:1; fill:none" points="212.459,1059.73 231.357,1059.73 "/>
<polyline clip-path="url(#clip420)" style="stroke:#000000; stroke-linecap:round; stroke-linejoin:round; stroke-width:4; stroke-opacity:1; fill:none" points="212.459,735.212 231.357,735.212 "/>
<polyline clip-path="url(#clip420)" style="stroke:#000000; stroke-linecap:round; stroke-linejoin:round; stroke-width:4; stroke-opacity:1; fill:none" points="212.459,410.699 231.357,410.699 "/>
<polyline clip-path="url(#clip420)" style="stroke:#000000; stroke-linecap:round; stroke-linejoin:round; stroke-width:4; stroke-opacity:1; fill:none" points="212.459,86.1857 231.357,86.1857 "/>
<path clip-path="url(#clip420)" d="M114.26 1384.69 L143.936 1384.69 L143.936 1388.62 L114.26 1388.62 L114.26 1384.69 Z" fill="#000000" fill-rule="nonzero" fill-opacity="1" /><path clip-path="url(#clip420)" d="M166.876 1371.03 L155.07 1389.48 L166.876 1389.48 L166.876 1371.03 M165.649 1366.96 L171.528 1366.96 L171.528 1389.48 L176.459 1389.48 L176.459 1393.37 L171.528 1393.37 L171.528 1401.52 L166.876 1401.52 L166.876 1393.37 L151.274 1393.37 L151.274 1388.86 L165.649 1366.96 Z" fill="#000000" fill-rule="nonzero" fill-opacity="1" /><path clip-path="url(#clip420)" d="M116.343 1060.18 L146.019 1060.18 L146.019 1064.11 L116.343 1064.11 L116.343 1060.18 Z" fill="#000000" fill-rule="nonzero" fill-opacity="1" /><path clip-path="url(#clip420)" d="M160.14 1073.07 L176.459 1073.07 L176.459 1077.01 L154.515 1077.01 L154.515 1073.07 Q157.177 1070.32 161.76 1065.69 Q166.366 1061.03 167.547 1059.69 Q169.792 1057.17 170.672 1055.43 Q171.575 1053.67 171.575 1051.98 Q171.575 1049.23 169.63 1047.49 Q167.709 1045.76 164.607 1045.76 Q162.408 1045.76 159.954 1046.52 Q157.524 1047.28 154.746 1048.83 L154.746 1044.11 Q157.57 1042.98 160.024 1042.4 Q162.477 1041.82 164.515 1041.82 Q169.885 1041.82 173.079 1044.51 Q176.274 1047.19 176.274 1051.68 Q176.274 1053.81 175.464 1055.73 Q174.677 1057.63 172.57 1060.22 Q171.991 1060.89 168.889 1064.11 Q165.788 1067.31 160.14 1073.07 Z" fill="#000000" fill-rule="nonzero" fill-opacity="1" /><path clip-path="url(#clip420)" d="M164.515 721.011 Q160.903 721.011 159.075 724.575 Q157.269 728.117 157.269 735.247 Q157.269 742.353 159.075 745.918 Q160.903 749.46 164.515 749.46 Q168.149 749.46 169.954 745.918 Q171.783 742.353 171.783 735.247 Q171.783 728.117 169.954 724.575 Q168.149 721.011 164.515 721.011 M164.515 717.307 Q170.325 717.307 173.38 721.913 Q176.459 726.497 176.459 735.247 Q176.459 743.973 173.38 748.58 Q170.325 753.163 164.515 753.163 Q158.704 753.163 155.626 748.58 Q152.57 743.973 152.57 735.247 Q152.57 726.497 155.626 721.913 Q158.704 717.307 164.515 717.307 Z" fill="#000000" fill-rule="nonzero" fill-opacity="1" /><path clip-path="url(#clip420)" d="M160.14 424.044 L176.459 424.044 L176.459 427.979 L154.515 427.979 L154.515 424.044 Q157.177 421.289 161.76 416.659 Q166.366 412.007 167.547 410.664 Q169.792 408.141 170.672 406.405 Q171.575 404.646 171.575 402.956 Q171.575 400.201 169.63 398.465 Q167.709 396.729 164.607 396.729 Q162.408 396.729 159.954 397.493 Q157.524 398.257 154.746 399.808 L154.746 395.085 Q157.57 393.951 160.024 393.373 Q162.477 392.794 164.515 392.794 Q169.885 392.794 173.079 395.479 Q176.274 398.164 176.274 402.655 Q176.274 404.785 175.464 406.706 Q174.677 408.604 172.57 411.197 Q171.991 411.868 168.889 415.085 Q165.788 418.28 160.14 424.044 Z" fill="#000000" fill-rule="nonzero" fill-opacity="1" /><path clip-path="url(#clip420)" d="M166.876 72.9797 L155.07 91.4287 L166.876 91.4287 L166.876 72.9797 M165.649 68.9057 L171.528 68.9057 L171.528 91.4287 L176.459 91.4287 L176.459 95.3176 L171.528 95.3176 L171.528 103.466 L166.876 103.466 L166.876 95.3176 L151.274 95.3176 L151.274 90.8037 L165.649 68.9057 Z" fill="#000000" fill-rule="nonzero" fill-opacity="1" /><path clip-path="url(#clip420)" d="M16.4842 815.293 L16.4842 808.863 L64.0042 808.863 L64.0042 815.293 L16.4842 815.293 Z" fill="#000000" fill-rule="nonzero" fill-opacity="1" /><path clip-path="url(#clip420)" d="M35.1993 768.568 Q31.2526 766.372 29.3747 763.317 Q27.4968 760.261 27.4968 756.123 Q27.4968 750.553 31.4117 747.53 Q35.2948 744.506 42.4881 744.506 L64.0042 744.506 L64.0042 750.394 L42.679 750.394 Q37.5546 750.394 35.072 752.208 Q32.5894 754.023 32.5894 757.747 Q32.5894 762.298 35.6131 764.94 Q38.6368 767.582 43.8567 767.582 L64.0042 767.582 L64.0042 773.47 L42.679 773.47 Q37.5228 773.47 35.072 775.284 Q32.5894 777.098 32.5894 780.886 Q32.5894 785.374 35.6449 788.016 Q38.6686 790.657 43.8567 790.657 L64.0042 790.657 L64.0042 796.546 L28.3562 796.546 L28.3562 790.657 L33.8944 790.657 Q30.616 788.652 29.0564 785.851 Q27.4968 783.05 27.4968 779.199 Q27.4968 775.316 29.4702 772.61 Q31.4436 769.873 35.1993 768.568 Z" fill="#000000" fill-rule="nonzero" fill-opacity="1" /><path clip-path="url(#clip420)" d="M14.5426 718.757 Q21.8632 723.022 29.0246 725.09 Q36.186 727.159 43.5384 727.159 Q50.8908 727.159 58.1159 725.09 Q65.3091 722.99 72.5979 718.757 L72.5979 723.849 Q65.1182 728.623 57.8931 731.011 Q50.668 733.366 43.5384 733.366 Q36.4406 733.366 29.2474 731.011 Q22.0542 728.655 14.5426 723.849 L14.5426 718.757 Z" fill="#000000" fill-rule="nonzero" fill-opacity="1" /><path clip-path="url(#clip420)" d="M28.3562 677.761 L45.7028 690.652 L64.0042 677.093 L64.0042 684 L49.9996 694.376 L64.0042 704.752 L64.0042 711.659 L45.3526 697.813 L28.3562 710.481 L28.3562 703.574 L41.0558 694.121 L28.3562 684.668 L28.3562 677.761 Z" fill="#000000" fill-rule="nonzero" fill-opacity="1" /><path clip-path="url(#clip420)" d="M14.5426 669.741 L14.5426 664.648 Q22.0542 659.874 29.2474 657.519 Q36.4406 655.131 43.5384 655.131 Q50.668 655.131 57.8931 657.519 Q65.1182 659.874 72.5979 664.648 L72.5979 669.741 Q65.3091 665.507 58.1159 663.439 Q50.8908 661.338 43.5384 661.338 Q36.186 661.338 29.0246 663.439 Q21.8632 665.507 14.5426 669.741 Z" fill="#000000" fill-rule="nonzero" fill-opacity="1" /><path clip-path="url(#clip422)" d="M309.068 1384.24 L795.838 897.469 L1120.35 897.469 L1120.35 897.469 L1120.35 1221.98 L1120.35 1221.98 L1444.86 1221.98 L1444.86 1221.98 L1444.86 897.469 L1444.86 897.469 L1769.38 897.469 L1769.38 897.469 L1769.38 572.955 L1769.38 572.955 L1444.86 572.955 L1444.86 572.955 L1444.86 248.442 L1444.86 248.442 L1120.35 248.442 L1120.35 248.442 L1120.35 572.955 L1120.35 572.955 L795.838 572.955 L795.838 572.955 L795.838 897.469 L795.838 897.469 L309.068 1384.24 L2256.15 1384.24 L2256.15 1384.24 L2256.15 86.1857 L2256.15 86.1857 L309.068 86.1857 L309.068 86.1857 L309.068 1384.24 L309.068 1384.24 L309.068 1384.24  Z" fill="#ff0000" fill-rule="evenodd" fill-opacity="1"/>
<polyline clip-path="url(#clip422)" style="stroke:#000000; stroke-linecap:round; stroke-linejoin:round; stroke-width:0; stroke-opacity:0; fill:none" points="309.068,1384.24 795.838,897.469 1120.35,897.469 1120.35,1221.98 1444.86,1221.98 1444.86,897.469 1769.38,897.469 1769.38,572.955 1444.86,572.955 1444.86,248.442 1120.35,248.442 1120.35,572.955 795.838,572.955 795.838,897.469 309.068,1384.24 2256.15,1384.24 2256.15,86.1857 309.068,86.1857 309.068,1384.24 "/>
<polyline clip-path="url(#clip422)" style="stroke:#000000; stroke-linecap:round; stroke-linejoin:round; stroke-width:0; stroke-opacity:1; fill:none" points="309.068,1384.24 2256.15,1384.24 2256.15,86.1857 309.068,86.1857 309.068,1384.24 "/>
<polyline clip-path="url(#clip422)" style="stroke:#000000; stroke-linecap:round; stroke-linejoin:round; stroke-width:0; stroke-opacity:1; fill:none" points="1444.86,897.469 1444.86,1221.98 1120.35,1221.98 1120.35,897.469 795.838,897.469 795.838,572.955 1120.35,572.955 1120.35,248.442 1444.86,248.442 1444.86,572.955 1769.38,572.955 1769.38,897.469 1444.86,897.469 "/>
</svg>
