<?xml version="1.0" encoding="utf-8"?>
<svg xmlns="http://www.w3.org/2000/svg" xmlns:xlink="http://www.w3.org/1999/xlink" width="600" height="400" viewBox="0 0 2400 1600">
<defs>
  <clipPath id="clip1400">
    <rect x="0" y="0" width="2400" height="1600"/>
  </clipPath>
</defs>
<path clip-path="url(#clip1400)" d="
M0 1600 L2400 1600 L2400 0 L0 0  Z
  " fill="#ffffff" fill-rule="evenodd" fill-opacity="1"/>
<defs>
  <clipPath id="clip1401">
    <rect x="480" y="0" width="1681" height="1600"/>
  </clipPath>
</defs>
<path clip-path="url(#clip1400)" d="
M609.123 1425.62 L1987.5 1425.62 L1987.5 47.2441 L609.123 47.2441  Z
  " fill="#ffffff" fill-rule="evenodd" fill-opacity="1"/>
<defs>
  <clipPath id="clip1402">
    <rect x="609" y="47" width="1379" height="1379"/>
  </clipPath>
</defs>
<polyline clip-path="url(#clip1402)" style="stroke:#000000; stroke-width:2; stroke-opacity:0.1; fill:none" points="
  739.564,1425.62 739.564,47.2441 
  "/>
<polyline clip-path="url(#clip1402)" style="stroke:#000000; stroke-width:2; stroke-opacity:0.1; fill:none" points="
  993.54,1425.62 993.54,47.2441 
  "/>
<polyline clip-path="url(#clip1402)" style="stroke:#000000; stroke-width:2; stroke-opacity:0.1; fill:none" points="
  1247.51,1425.62 1247.51,47.2441 
  "/>
<polyline clip-path="url(#clip1402)" style="stroke:#000000; stroke-width:2; stroke-opacity:0.1; fill:none" points="
  1501.49,1425.62 1501.49,47.2441 
  "/>
<polyline clip-path="url(#clip1402)" style="stroke:#000000; stroke-width:2; stroke-opacity:0.1; fill:none" points="
  1755.47,1425.62 1755.47,47.2441 
  "/>
<polyline clip-path="url(#clip1402)" style="stroke:#000000; stroke-width:2; stroke-opacity:0.1; fill:none" points="
  609.123,1244.38 1987.5,1244.38 
  "/>
<polyline clip-path="url(#clip1402)" style="stroke:#000000; stroke-width:2; stroke-opacity:0.1; fill:none" points="
  609.123,990.407 1987.5,990.407 
  "/>
<polyline clip-path="url(#clip1402)" style="stroke:#000000; stroke-width:2; stroke-opacity:0.1; fill:none" points="
  609.123,736.431 1987.5,736.431 
  "/>
<polyline clip-path="url(#clip1402)" style="stroke:#000000; stroke-width:2; stroke-opacity:0.1; fill:none" points="
  609.123,482.456 1987.5,482.456 
  "/>
<polyline clip-path="url(#clip1402)" style="stroke:#000000; stroke-width:2; stroke-opacity:0.1; fill:none" points="
  609.123,228.481 1987.5,228.481 
  "/>
<polyline clip-path="url(#clip1400)" style="stroke:#000000; stroke-width:4; stroke-opacity:1; fill:none" points="
  609.123,1425.62 1987.5,1425.62 
  "/>
<polyline clip-path="url(#clip1400)" style="stroke:#000000; stroke-width:4; stroke-opacity:1; fill:none" points="
  609.123,1425.62 609.123,47.2441 
  "/>
<polyline clip-path="url(#clip1400)" style="stroke:#000000; stroke-width:4; stroke-opacity:1; fill:none" points="
  739.564,1425.62 739.564,1404.94 
  "/>
<polyline clip-path="url(#clip1400)" style="stroke:#000000; stroke-width:4; stroke-opacity:1; fill:none" points="
  993.54,1425.62 993.54,1404.94 
  "/>
<polyline clip-path="url(#clip1400)" style="stroke:#000000; stroke-width:4; stroke-opacity:1; fill:none" points="
  1247.51,1425.62 1247.51,1404.94 
  "/>
<polyline clip-path="url(#clip1400)" style="stroke:#000000; stroke-width:4; stroke-opacity:1; fill:none" points="
  1501.49,1425.62 1501.49,1404.94 
  "/>
<polyline clip-path="url(#clip1400)" style="stroke:#000000; stroke-width:4; stroke-opacity:1; fill:none" points="
  1755.47,1425.62 1755.47,1404.94 
  "/>
<polyline clip-path="url(#clip1400)" style="stroke:#000000; stroke-width:4; stroke-opacity:1; fill:none" points="
  609.123,1244.38 629.798,1244.38 
  "/>
<polyline clip-path="url(#clip1400)" style="stroke:#000000; stroke-width:4; stroke-opacity:1; fill:none" points="
  609.123,990.407 629.798,990.407 
  "/>
<polyline clip-path="url(#clip1400)" style="stroke:#000000; stroke-width:4; stroke-opacity:1; fill:none" points="
  609.123,736.431 629.798,736.431 
  "/>
<polyline clip-path="url(#clip1400)" style="stroke:#000000; stroke-width:4; stroke-opacity:1; fill:none" points="
  609.123,482.456 629.798,482.456 
  "/>
<polyline clip-path="url(#clip1400)" style="stroke:#000000; stroke-width:4; stroke-opacity:1; fill:none" points="
  609.123,228.481 629.798,228.481 
  "/>
<g clip-path="url(#clip1400)">
<text style="fill:#000000; fill-opacity:1; font-family:Arial,Helvetica Neue,Helvetica,sans-serif; font-size:48px; text-anchor:middle;" transform="rotate(0, 739.564, 1479.62)" x="739.564" y="1479.62">-2.5</text>
</g>
<g clip-path="url(#clip1400)">
<text style="fill:#000000; fill-opacity:1; font-family:Arial,Helvetica Neue,Helvetica,sans-serif; font-size:48px; text-anchor:middle;" transform="rotate(0, 993.54, 1479.62)" x="993.54" y="1479.62">0.0</text>
</g>
<g clip-path="url(#clip1400)">
<text style="fill:#000000; fill-opacity:1; font-family:Arial,Helvetica Neue,Helvetica,sans-serif; font-size:48px; text-anchor:middle;" transform="rotate(0, 1247.51, 1479.62)" x="1247.51" y="1479.62">2.5</text>
</g>
<g clip-path="url(#clip1400)">
<text style="fill:#000000; fill-opacity:1; font-family:Arial,Helvetica Neue,Helvetica,sans-serif; font-size:48px; text-anchor:middle;" transform="rotate(0, 1501.49, 1479.62)" x="1501.49" y="1479.62">5.0</text>
</g>
<g clip-path="url(#clip1400)">
<text style="fill:#000000; fill-opacity:1; font-family:Arial,Helvetica Neue,Helvetica,sans-serif; font-size:48px; text-anchor:middle;" transform="rotate(0, 1755.47, 1479.62)" x="1755.47" y="1479.62">7.5</text>
</g>
<g clip-path="url(#clip1400)">
<text style="fill:#000000; fill-opacity:1; font-family:Arial,Helvetica Neue,Helvetica,sans-serif; font-size:48px; text-anchor:end;" transform="rotate(0, 585.123, 1261.88)" x="585.123" y="1261.88">-5.0</text>
</g>
<g clip-path="url(#clip1400)">
<text style="fill:#000000; fill-opacity:1; font-family:Arial,Helvetica Neue,Helvetica,sans-serif; font-size:48px; text-anchor:end;" transform="rotate(0, 585.123, 1007.91)" x="585.123" y="1007.91">-2.5</text>
</g>
<g clip-path="url(#clip1400)">
<text style="fill:#000000; fill-opacity:1; font-family:Arial,Helvetica Neue,Helvetica,sans-serif; font-size:48px; text-anchor:end;" transform="rotate(0, 585.123, 753.931)" x="585.123" y="753.931">0.0</text>
</g>
<g clip-path="url(#clip1400)">
<text style="fill:#000000; fill-opacity:1; font-family:Arial,Helvetica Neue,Helvetica,sans-serif; font-size:48px; text-anchor:end;" transform="rotate(0, 585.123, 499.956)" x="585.123" y="499.956">2.5</text>
</g>
<g clip-path="url(#clip1400)">
<text style="fill:#000000; fill-opacity:1; font-family:Arial,Helvetica Neue,Helvetica,sans-serif; font-size:48px; text-anchor:end;" transform="rotate(0, 585.123, 245.981)" x="585.123" y="245.981">5.0</text>
</g>
<g clip-path="url(#clip1400)">
<text style="fill:#000000; fill-opacity:1; font-family:Arial,Helvetica Neue,Helvetica,sans-serif; font-size:66px; text-anchor:middle;" transform="rotate(0, 1298.31, 1559.48)" x="1298.31" y="1559.48">Re(x)</text>
</g>
<g clip-path="url(#clip1400)">
<text style="fill:#000000; fill-opacity:1; font-family:Arial,Helvetica Neue,Helvetica,sans-serif; font-size:66px; text-anchor:middle;" transform="rotate(-90, 454.545, 736.431)" x="454.545" y="736.431">Im(x)</text>
</g>
<path clip-path="url(#clip1402)" d="
M-1952.57 736.431 L891.95 736.431 L891.968 734.497 L892.023 732.563 L892.115 730.63 L892.244 728.699 L892.41 726.772 L892.612 724.847 L892.851 722.927 L893.127 721.012 
  L893.438 719.103 L893.787 717.199 L894.171 715.303 L894.591 713.414 L895.048 711.534 L895.54 709.663 L896.067 707.801 L896.63 705.95 L897.292 703.921 L897.996 701.906 
  L898.743 699.907 L899.531 697.923 L900.36 695.957 L901.231 694.008 L902.143 692.079 L903.095 690.168 L904.087 688.278 L905.118 686.41 L906.188 684.563 L907.297 682.74 
  L908.444 680.94 L909.629 679.164 L910.85 677.414 L912.108 675.69 L913.207 674.245 L914.331 672.82 L915.48 671.414 L916.654 670.03 L917.853 668.667 L919.075 667.326 
  L920.322 666.006 L921.592 664.709 L922.885 663.435 L924.2 662.184 L925.538 660.957 L926.897 659.755 L928.278 658.576 L929.679 657.422 L931.101 656.294 L932.543 655.191 
  L934.263 653.928 L936.009 652.701 L937.781 651.511 L939.577 650.358 L941.398 649.243 L943.241 648.167 L945.106 647.13 L946.993 646.132 L948.9 645.174 L950.827 644.257 
  L952.773 643.38 L954.737 642.544 L956.718 641.749 L958.715 640.997 L960.727 640.286 L962.754 639.618 L964.623 639.044 L966.502 638.505 L968.391 638.003 L970.29 637.538 
  L972.197 637.108 L974.112 636.716 L976.034 636.361 L977.963 636.043 L979.897 635.761 L981.837 635.518 L983.781 635.311 L985.728 635.142 L987.679 635.01 L989.631 634.916 
  L991.585 634.86 L993.54 634.841 L995.474 634.86 L997.409 634.915 L999.341 635.007 L1001.27 635.136 L1003.2 635.302 L1005.12 635.504 L1007.04 635.743 L1008.96 636.018 
  L1010.87 636.33 L1012.77 636.678 L1014.67 637.063 L1016.56 637.483 L1018.44 637.939 L1020.31 638.431 L1022.17 638.959 L1024.02 639.522 L1026.05 640.184 L1028.06 640.888 
  L1030.06 641.634 L1032.05 642.422 L1034.01 643.252 L1035.96 644.123 L1037.89 645.035 L1039.8 645.986 L1041.69 646.978 L1043.56 648.01 L1045.41 649.08 L1047.23 650.189 
  L1049.03 651.336 L1050.81 652.52 L1052.56 653.742 L1054.28 655 L1055.73 656.098 L1057.15 657.222 L1058.56 658.371 L1059.94 659.546 L1061.3 660.744 L1062.65 661.967 
  L1063.96 663.214 L1065.26 664.484 L1066.54 665.776 L1067.79 667.092 L1069.01 668.43 L1070.22 669.789 L1071.4 671.17 L1072.55 672.571 L1073.68 673.993 L1074.78 675.435 
  L1076.04 677.155 L1077.27 678.901 L1078.46 680.673 L1079.61 682.469 L1080.73 684.289 L1081.8 686.132 L1082.84 687.998 L1083.84 689.884 L1084.8 691.792 L1085.71 693.719 
  L1086.59 695.664 L1087.43 697.628 L1088.22 699.609 L1088.97 701.606 L1089.68 703.619 L1090.35 705.646 L1090.93 707.514 L1091.47 709.394 L1091.97 711.283 L1092.43 713.181 
  L1092.86 715.089 L1093.25 717.004 L1093.61 718.926 L1093.93 720.854 L1094.21 722.789 L1094.45 724.728 L1094.66 726.672 L1094.83 728.62 L1094.96 730.57 L1095.05 732.523 
  L1095.11 734.477 L1095.13 736.431 L1196.72 736.431 L1298.31 634.841 L1298.31 634.841 L1399.9 736.431 L1552.29 824.411 L1552.29 648.452 L1552.29 648.452 L1704.67 736.431 
  L1704.67 736.431 L1552.29 824.411 L1552.29 824.411 L1399.9 736.431 L1399.9 736.431 L1298.31 838.021 L1298.31 838.021 L1196.72 736.431 L1196.72 736.431 L1095.13 736.431 
  L1095.13 736.431 L1095.11 738.366 L1095.06 740.3 L1094.96 742.233 L1094.84 744.163 L1094.67 746.091 L1094.47 748.015 L1094.23 749.935 L1093.95 751.851 L1093.64 753.76 
  L1093.29 755.663 L1092.91 757.56 L1092.49 759.448 L1092.03 761.329 L1091.54 763.2 L1091.01 765.061 L1090.45 766.912 L1089.79 768.942 L1089.08 770.956 L1088.34 772.956 
  L1087.55 774.939 L1086.72 776.906 L1085.85 778.854 L1084.94 780.784 L1083.98 782.694 L1082.99 784.584 L1081.96 786.453 L1080.89 788.299 L1079.78 790.123 L1078.64 791.923 
  L1077.45 793.698 L1076.23 795.448 L1074.97 797.173 L1073.87 798.618 L1072.75 800.043 L1071.6 801.448 L1070.43 802.833 L1069.23 804.196 L1068 805.537 L1066.76 806.857 
  L1065.49 808.153 L1064.19 809.428 L1062.88 810.678 L1061.54 811.905 L1060.18 813.108 L1058.8 814.287 L1057.4 815.44 L1055.98 816.569 L1054.54 817.671 L1052.82 818.935 
  L1051.07 820.162 L1049.3 821.352 L1047.5 822.505 L1045.68 823.619 L1043.84 824.695 L1041.97 825.733 L1040.09 826.73 L1038.18 827.688 L1036.25 828.606 L1034.31 829.483 
  L1032.34 830.319 L1030.36 831.113 L1028.36 831.866 L1026.35 832.577 L1024.33 833.245 L1022.46 833.819 L1020.58 834.357 L1018.69 834.86 L1016.79 835.325 L1014.88 835.754 
  L1012.97 836.146 L1011.05 836.502 L1009.12 836.82 L1007.18 837.101 L1005.24 837.345 L1003.3 837.552 L1001.35 837.721 L999.401 837.852 L997.448 837.946 L995.494 838.003 
  L993.54 838.021 L991.605 838.003 L989.671 837.948 L987.738 837.856 L985.808 837.727 L983.88 837.561 L981.956 837.359 L980.036 837.12 L978.121 836.844 L976.211 836.533 
  L974.308 836.184 L972.411 835.8 L970.523 835.38 L968.643 834.923 L966.771 834.431 L964.91 833.904 L963.059 833.341 L961.03 832.679 L959.015 831.975 L957.015 831.229 
  L955.032 830.44 L953.065 829.611 L951.117 828.74 L949.187 827.828 L947.277 826.876 L945.387 825.884 L943.518 824.853 L941.672 823.783 L939.848 822.674 L938.048 821.527 
  L936.273 820.342 L934.523 819.121 L932.798 817.863 L931.353 816.764 L929.928 815.64 L928.523 814.491 L927.139 813.317 L925.775 812.119 L924.434 810.896 L923.115 809.649 
  L921.818 808.379 L920.544 807.086 L919.293 805.771 L918.066 804.433 L916.863 803.074 L915.684 801.693 L914.531 800.292 L913.402 798.87 L912.3 797.428 L911.036 795.708 
  L909.809 793.962 L908.619 792.19 L907.466 790.394 L906.352 788.574 L905.276 786.73 L904.238 784.865 L903.241 782.978 L902.283 781.071 L901.365 779.144 L900.488 777.198 
  L899.652 775.234 L898.858 773.254 L898.105 771.256 L897.395 769.244 L896.726 767.217 L896.152 765.348 L895.614 763.469 L895.112 761.58 L894.646 759.681 L894.217 757.774 
  L893.825 755.859 L893.469 753.937 L893.151 752.008 L892.87 750.074 L892.626 748.134 L892.419 746.19 L892.25 744.243 L892.119 742.293 L892.025 740.34 L891.968 738.386 
  L891.95 736.431 L-1952.57 736.431 L-1951.97 798.982 L-1950.17 861.509 L-1947.16 923.99 L-1942.95 986.402 L-1937.54 1048.72 L-1930.93 1110.92 L-1923.13 1172.99 L-1914.13 1234.89 
  L-1903.95 1296.61 L-1892.57 1358.12 L-1880.02 1419.4 L-1866.29 1480.43 L-1851.39 1541.18 L-1835.32 1601.64 L-1818.1 1661.77 L-1799.71 1721.56 L-1778.34 1786.43 L-1755.6 1850.83 
  L-1731.51 1914.74 L-1706.09 1978.13 L-1679.34 2040.97 L-1651.28 2103.24 L-1621.91 2164.9 L-1591.26 2225.93 L-1559.33 2286.31 L-1526.14 2346 L-1491.71 2404.98 L-1456.04 2463.23 
  L-1419.15 2520.71 L-1381.07 2577.4 L-1341.8 2633.28 L-1301.37 2688.33 L-1266.08 2734.46 L-1229.97 2779.96 L-1193.06 2824.81 L-1155.35 2868.99 L-1116.86 2912.49 L-1077.59 2955.29 
  L-1037.57 2997.39 L-996.798 3038.76 L-955.296 3079.4 L-913.075 3119.29 L-870.148 3158.42 L-826.528 3196.78 L-782.23 3234.35 L-737.268 3271.12 L-691.656 3307.09 L-645.409 3342.23 
  L-590.238 3382.49 L-534.233 3421.58 L-477.42 3459.49 L-419.822 3496.19 L-361.466 3531.67 L-302.378 3565.93 L-242.583 3598.93 L-182.108 3630.67 L-120.98 3661.13 L-59.2249 3690.3 
  L3.12913 3718.17 L66.0548 3744.72 L129.524 3769.94 L193.51 3793.83 L257.983 3816.36 L322.915 3837.54 L382.152 3855.55 L441.721 3872.43 L501.601 3888.18 L561.769 3902.78 
  L622.205 3916.23 L682.886 3928.53 L743.791 3939.67 L804.896 3949.65 L866.181 3958.47 L927.622 3966.11 L989.198 3972.59 L1050.89 3977.89 L1112.66 3982.01 L1174.51 3984.96 
  L1236.4 3986.73 L1298.31 3987.31 L1360.86 3986.71 L1423.39 3984.91 L1485.87 3981.9 L1548.28 3977.69 L1610.6 3972.28 L1672.8 3965.67 L1734.87 3957.87 L1796.77 3948.87 
  L1858.49 3938.69 L1920 3927.32 L1981.28 3914.76 L2042.31 3901.03 L2103.06 3886.13 L2163.52 3870.07 L2223.65 3852.84 L2283.44 3834.46 L2348.31 3813.08 L2412.71 3790.34 
  L2476.62 3766.25 L2540.01 3740.83 L2602.85 3714.08 L2665.12 3686.02 L2726.78 3656.66 L2787.81 3626 L2848.19 3594.07 L2907.88 3560.88 L2966.86 3526.45 L3025.1 3490.78 
  L3082.59 3453.89 L3139.28 3415.81 L3195.16 3376.54 L3250.21 3336.11 L3296.34 3300.82 L3341.84 3264.72 L3386.69 3227.8 L3430.87 3190.09 L3474.37 3151.6 L3517.17 3112.33 
  L3559.27 3072.31 L3600.64 3031.54 L3641.28 2990.04 L3681.17 2947.82 L3720.3 2904.89 L3758.66 2861.27 L3796.23 2816.97 L3833 2772.01 L3868.97 2726.4 L3904.11 2680.15 
  L3944.37 2624.98 L3983.46 2568.97 L4021.36 2512.16 L4058.07 2454.56 L4093.55 2396.21 L4127.8 2337.12 L4160.81 2277.32 L4192.55 2216.85 L4223.01 2155.72 L4252.18 2093.97 
  L4280.05 2031.61 L4306.6 1968.69 L4331.82 1905.22 L4355.7 1841.23 L4378.24 1776.76 L4399.41 1711.83 L4417.43 1652.59 L4434.31 1593.02 L4450.06 1533.14 L4464.66 1472.97 
  L4478.11 1412.54 L4490.41 1351.85 L4501.55 1290.95 L4511.53 1229.85 L4520.34 1168.56 L4527.99 1107.12 L4534.46 1045.54 L4539.76 983.856 L4543.89 922.078 L4546.84 860.233 
  L4548.6 798.344 L4549.19 736.431 L4549.19 736.431 L4548.59 673.881 L4546.79 611.354 L4543.78 548.873 L4539.57 486.461 L4534.16 424.142 L4527.55 361.939 L4519.75 299.874 
  L4510.75 237.971 L4500.57 176.252 L4489.19 114.741 L4476.64 53.4603 L4462.91 -7.56776 L4448.01 -68.3204 L4431.94 -128.775 L4414.72 -188.909 L4396.33 -248.701 L4374.96 -313.566 
  L4352.22 -377.968 L4328.13 -441.879 L4302.71 -505.269 L4275.96 -568.111 L4247.9 -630.377 L4218.53 -692.04 L4187.88 -753.072 L4155.95 -813.447 L4122.76 -873.138 L4088.33 -932.118 
  L4052.66 -990.362 L4015.77 -1047.84 L3977.69 -1104.54 L3938.42 -1160.42 L3897.99 -1215.46 L3862.7 -1261.6 L3826.59 -1307.1 L3789.68 -1351.95 L3751.97 -1396.13 L3713.48 -1439.62 
  L3674.21 -1482.43 L3634.19 -1524.52 L3593.42 -1565.9 L3551.92 -1606.54 L3509.7 -1646.43 L3466.77 -1685.56 L3423.15 -1723.92 L3378.85 -1761.49 L3333.89 -1798.26 L3288.28 -1834.23 
  L3242.03 -1869.37 L3186.86 -1909.63 L3130.85 -1948.72 L3074.04 -1986.62 L3016.44 -2023.33 L2958.09 -2058.81 L2899 -2093.06 L2839.2 -2126.07 L2778.73 -2157.81 L2717.6 -2188.27 
  L2655.84 -2217.44 L2593.49 -2245.3 L2530.57 -2271.86 L2467.1 -2297.08 L2403.11 -2320.96 L2338.64 -2343.5 L2273.7 -2364.67 L2214.47 -2382.69 L2154.9 -2399.57 L2095.02 -2415.31 
  L2034.85 -2429.92 L1974.41 -2443.37 L1913.73 -2455.67 L1852.83 -2466.81 L1791.72 -2476.79 L1730.44 -2485.6 L1669 -2493.25 L1607.42 -2499.72 L1545.73 -2505.02 L1483.96 -2509.15 
  L1422.11 -2512.09 L1360.22 -2513.86 L1298.31 -2514.45 L1235.76 -2513.85 L1173.23 -2512.04 L1110.75 -2509.04 L1048.34 -2504.83 L986.021 -2499.42 L923.817 -2492.81 L861.753 -2485.01 
  L799.85 -2476.01 L738.131 -2465.82 L676.62 -2454.45 L615.339 -2441.9 L554.311 -2428.17 L493.558 -2413.27 L433.104 -2397.2 L372.969 -2379.97 L313.178 -2361.59 L248.312 -2340.21 
  L183.91 -2317.48 L120 -2293.39 L56.6101 -2267.97 L-6.23186 -2241.22 L-68.4981 -2213.16 L-130.161 -2183.79 L-191.193 -2153.14 L-251.568 -2121.21 L-311.259 -2088.02 L-370.24 -2053.58 
  L-428.484 -2017.92 L-485.966 -1981.03 L-542.66 -1942.95 L-598.542 -1903.68 L-653.586 -1863.25 L-699.723 -1827.96 L-745.221 -1791.85 L-790.068 -1754.94 L-834.247 -1717.23 L-877.746 -1678.73 
  L-920.55 -1639.47 L-962.646 -1599.45 L-1004.02 -1558.68 L-1044.66 -1517.17 L-1084.55 -1474.95 L-1123.68 -1432.03 L-1162.04 -1388.41 L-1199.61 -1344.11 L-1236.38 -1299.15 L-1272.35 -1253.54 
  L-1307.49 -1207.29 L-1347.75 -1152.12 L-1386.84 -1096.11 L-1424.74 -1039.3 L-1461.45 -981.701 L-1496.93 -923.345 L-1531.18 -864.257 L-1564.19 -804.462 L-1595.93 -743.987 L-1626.39 -682.858 
  L-1655.56 -621.104 L-1683.43 -558.75 L-1709.98 -495.824 L-1735.2 -432.354 L-1759.08 -368.369 L-1781.62 -303.896 L-1802.79 -238.963 L-1820.81 -179.727 L-1837.69 -120.158 L-1853.43 -60.278 
  L-1868.04 -0.109283 L-1881.49 60.3266 L-1893.79 121.008 L-1904.93 181.912 L-1914.91 243.018 L-1923.72 304.302 L-1931.37 365.743 L-1937.84 427.319 L-1943.14 489.007 L-1947.27 550.784 
  L-1950.22 612.629 L-1951.98 674.519 L-1952.57 736.431 L-1952.57 736.431  Z
  " fill="#009af9" fill-rule="evenodd" fill-opacity="1"/>
<polyline clip-path="url(#clip1402)" style="stroke:#000000; stroke-width:8; stroke-opacity:0; fill:none" points="
  -1952.57,736.431 891.95,736.431 891.968,734.497 892.023,732.563 892.115,730.63 892.244,728.699 892.41,726.772 892.612,724.847 892.851,722.927 893.127,721.012 
  893.438,719.103 893.787,717.199 894.171,715.303 894.591,713.414 895.048,711.534 895.54,709.663 896.067,707.801 896.63,705.95 897.292,703.921 897.996,701.906 
  898.743,699.907 899.531,697.923 900.36,695.957 901.231,694.008 902.143,692.079 903.095,690.168 904.087,688.278 905.118,686.41 906.188,684.563 907.297,682.74 
  908.444,680.94 909.629,679.164 910.85,677.414 912.108,675.69 913.207,674.245 914.331,672.82 915.48,671.414 916.654,670.03 917.853,668.667 919.075,667.326 
  920.322,666.006 921.592,664.709 922.885,663.435 924.2,662.184 925.538,660.957 926.897,659.755 928.278,658.576 929.679,657.422 931.101,656.294 932.543,655.191 
  934.263,653.928 936.009,652.701 937.781,651.511 939.577,650.358 941.398,649.243 943.241,648.167 945.106,647.13 946.993,646.132 948.9,645.174 950.827,644.257 
  952.773,643.38 954.737,642.544 956.718,641.749 958.715,640.997 960.727,640.286 962.754,639.618 964.623,639.044 966.502,638.505 968.391,638.003 970.29,637.538 
  972.197,637.108 974.112,636.716 976.034,636.361 977.963,636.043 979.897,635.761 981.837,635.518 983.781,635.311 985.728,635.142 987.679,635.01 989.631,634.916 
  991.585,634.86 993.54,634.841 995.474,634.86 997.409,634.915 999.341,635.007 1001.27,635.136 1003.2,635.302 1005.12,635.504 1007.04,635.743 1008.96,636.018 
  1010.87,636.33 1012.77,636.678 1014.67,637.063 1016.56,637.483 1018.44,637.939 1020.31,638.431 1022.17,638.959 1024.02,639.522 1026.05,640.184 1028.06,640.888 
  1030.06,641.634 1032.05,642.422 1034.01,643.252 1035.96,644.123 1037.89,645.035 1039.8,645.986 1041.69,646.978 1043.56,648.01 1045.41,649.08 1047.23,650.189 
  1049.03,651.336 1050.81,652.52 1052.56,653.742 1054.28,655 1055.73,656.098 1057.15,657.222 1058.56,658.371 1059.94,659.546 1061.3,660.744 1062.65,661.967 
  1063.96,663.214 1065.26,664.484 1066.54,665.776 1067.79,667.092 1069.01,668.43 1070.22,669.789 1071.4,671.17 1072.55,672.571 1073.68,673.993 1074.78,675.435 
  1076.04,677.155 1077.27,678.901 1078.46,680.673 1079.61,682.469 1080.73,684.289 1081.8,686.132 1082.84,687.998 1083.84,689.884 1084.8,691.792 1085.71,693.719 
  1086.59,695.664 1087.43,697.628 1088.22,699.609 1088.97,701.606 1089.68,703.619 1090.35,705.646 1090.93,707.514 1091.47,709.394 1091.97,711.283 1092.43,713.181 
  1092.86,715.089 1093.25,717.004 1093.61,718.926 1093.93,720.854 1094.21,722.789 1094.45,724.728 1094.66,726.672 1094.83,728.62 1094.96,730.57 1095.05,732.523 
  1095.11,734.477 1095.13,736.431 1196.72,736.431 1298.31,634.841 1399.9,736.431 1552.29,824.411 1552.29,648.452 1704.67,736.431 
  1552.29,824.411 1399.9,736.431 1298.31,838.021 1196.72,736.431 1095.13,736.431 
  1095.11,738.366 1095.06,740.3 1094.96,742.233 1094.84,744.163 1094.67,746.091 1094.47,748.015 1094.23,749.935 1093.95,751.851 1093.64,753.76 
  1093.29,755.663 1092.91,757.56 1092.49,759.448 1092.03,761.329 1091.54,763.2 1091.01,765.061 1090.45,766.912 1089.79,768.942 1089.08,770.956 1088.34,772.956 
  1087.55,774.939 1086.72,776.906 1085.85,778.854 1084.94,780.784 1083.98,782.694 1082.99,784.584 1081.96,786.453 1080.89,788.299 1079.78,790.123 1078.64,791.923 
  1077.45,793.698 1076.23,795.448 1074.97,797.173 1073.87,798.618 1072.75,800.043 1071.6,801.448 1070.43,802.833 1069.23,804.196 1068,805.537 1066.76,806.857 
  1065.49,808.153 1064.19,809.428 1062.88,810.678 1061.54,811.905 1060.18,813.108 1058.8,814.287 1057.4,815.44 1055.98,816.569 1054.54,817.671 1052.82,818.935 
  1051.07,820.162 1049.3,821.352 1047.5,822.505 1045.68,823.619 1043.84,824.695 1041.97,825.733 1040.09,826.73 1038.18,827.688 1036.25,828.606 1034.31,829.483 
  1032.34,830.319 1030.36,831.113 1028.36,831.866 1026.35,832.577 1024.33,833.245 1022.46,833.819 1020.58,834.357 1018.69,834.86 1016.79,835.325 1014.88,835.754 
  1012.97,836.146 1011.05,836.502 1009.12,836.82 1007.18,837.101 1005.24,837.345 1003.3,837.552 1001.35,837.721 999.401,837.852 997.448,837.946 995.494,838.003 
  993.54,838.021 991.605,838.003 989.671,837.948 987.738,837.856 985.808,837.727 983.88,837.561 981.956,837.359 980.036,837.12 978.121,836.844 976.211,836.533 
  974.308,836.184 972.411,835.8 970.523,835.38 968.643,834.923 966.771,834.431 964.91,833.904 963.059,833.341 961.03,832.679 959.015,831.975 957.015,831.229 
  955.032,830.44 953.065,829.611 951.117,828.74 949.187,827.828 947.277,826.876 945.387,825.884 943.518,824.853 941.672,823.783 939.848,822.674 938.048,821.527 
  936.273,820.342 934.523,819.121 932.798,817.863 931.353,816.764 929.928,815.64 928.523,814.491 927.139,813.317 925.775,812.119 924.434,810.896 923.115,809.649 
  921.818,808.379 920.544,807.086 919.293,805.771 918.066,804.433 916.863,803.074 915.684,801.693 914.531,800.292 913.402,798.87 912.3,797.428 911.036,795.708 
  909.809,793.962 908.619,792.19 907.466,790.394 906.352,788.574 905.276,786.73 904.238,784.865 903.241,782.978 902.283,781.071 901.365,779.144 900.488,777.198 
  899.652,775.234 898.858,773.254 898.105,771.256 897.395,769.244 896.726,767.217 896.152,765.348 895.614,763.469 895.112,761.58 894.646,759.681 894.217,757.774 
  893.825,755.859 893.469,753.937 893.151,752.008 892.87,750.074 892.626,748.134 892.419,746.19 892.25,744.243 892.119,742.293 892.025,740.34 891.968,738.386 
  891.95,736.431 -1952.57,736.431 -1951.97,798.982 -1950.17,861.509 -1947.16,923.99 -1942.95,986.402 -1937.54,1048.72 -1930.93,1110.92 -1923.13,1172.99 -1914.13,1234.89 
  -1903.95,1296.61 -1892.57,1358.12 -1880.02,1419.4 -1866.29,1480.43 -1851.39,1541.18 -1835.32,1601.64 -1818.1,1661.77 -1799.71,1721.56 -1778.34,1786.43 -1755.6,1850.83 
  -1731.51,1914.74 -1706.09,1978.13 -1679.34,2040.97 -1651.28,2103.24 -1621.91,2164.9 -1591.26,2225.93 -1559.33,2286.31 -1526.14,2346 -1491.71,2404.98 -1456.04,2463.23 
  -1419.15,2520.71 -1381.07,2577.4 -1341.8,2633.28 -1301.37,2688.33 -1266.08,2734.46 -1229.97,2779.96 -1193.06,2824.81 -1155.35,2868.99 -1116.86,2912.49 -1077.59,2955.29 
  -1037.57,2997.39 -996.798,3038.76 -955.296,3079.4 -913.075,3119.29 -870.148,3158.42 -826.528,3196.78 -782.23,3234.35 -737.268,3271.12 -691.656,3307.09 -645.409,3342.23 
  -590.238,3382.49 -534.233,3421.58 -477.42,3459.49 -419.822,3496.19 -361.466,3531.67 -302.378,3565.93 -242.583,3598.93 -182.108,3630.67 -120.98,3661.13 -59.2249,3690.3 
  3.12913,3718.17 66.0548,3744.72 129.524,3769.94 193.51,3793.83 257.983,3816.36 322.915,3837.54 382.152,3855.55 441.721,3872.43 501.601,3888.18 561.769,3902.78 
  622.205,3916.23 682.886,3928.53 743.791,3939.67 804.896,3949.65 866.181,3958.47 927.622,3966.11 989.198,3972.59 1050.89,3977.89 1112.66,3982.01 1174.51,3984.96 
  1236.4,3986.73 1298.31,3987.31 1360.86,3986.71 1423.39,3984.91 1485.87,3981.9 1548.28,3977.69 1610.6,3972.28 1672.8,3965.67 1734.87,3957.87 1796.77,3948.87 
  1858.49,3938.69 1920,3927.32 1981.28,3914.76 2042.31,3901.03 2103.06,3886.13 2163.52,3870.07 2223.65,3852.84 2283.44,3834.46 2348.31,3813.08 2412.71,3790.34 
  2476.62,3766.25 2540.01,3740.83 2602.85,3714.08 2665.12,3686.02 2726.78,3656.66 2787.81,3626 2848.19,3594.07 2907.88,3560.88 2966.86,3526.45 3025.1,3490.78 
  3082.59,3453.89 3139.28,3415.81 3195.16,3376.54 3250.21,3336.11 3296.34,3300.82 3341.84,3264.72 3386.69,3227.8 3430.87,3190.09 3474.37,3151.6 3517.17,3112.33 
  3559.27,3072.31 3600.64,3031.54 3641.28,2990.04 3681.17,2947.82 3720.3,2904.89 3758.66,2861.27 3796.23,2816.97 3833,2772.01 3868.97,2726.4 3904.11,2680.15 
  3944.37,2624.98 3983.46,2568.97 4021.36,2512.16 4058.07,2454.56 4093.55,2396.21 4127.8,2337.12 4160.81,2277.32 4192.55,2216.85 4223.01,2155.72 4252.18,2093.97 
  4280.05,2031.61 4306.6,1968.69 4331.82,1905.22 4355.7,1841.23 4378.24,1776.76 4399.41,1711.83 4417.43,1652.59 4434.31,1593.02 4450.06,1533.14 4464.66,1472.97 
  4478.11,1412.54 4490.41,1351.85 4501.55,1290.95 4511.53,1229.85 4520.34,1168.56 4527.99,1107.12 4534.46,1045.54 4539.76,983.856 4543.89,922.078 4546.84,860.233 
  4548.6,798.344 4549.19,736.431 4549.19,736.431 4548.59,673.881 4546.79,611.354 4543.78,548.873 4539.57,486.461 4534.16,424.142 4527.55,361.939 4519.75,299.874 
  4510.75,237.971 4500.57,176.252 4489.19,114.741 4476.64,53.4603 4462.91,-7.56776 4448.01,-68.3204 4431.94,-128.775 4414.72,-188.909 4396.33,-248.701 4374.96,-313.566 
  4352.22,-377.968 4328.13,-441.879 4302.71,-505.269 4275.96,-568.111 4247.9,-630.377 4218.53,-692.04 4187.88,-753.072 4155.95,-813.447 4122.76,-873.138 4088.33,-932.118 
  4052.66,-990.362 4015.77,-1047.84 3977.69,-1104.54 3938.42,-1160.42 3897.99,-1215.46 3862.7,-1261.6 3826.59,-1307.1 3789.68,-1351.95 3751.97,-1396.13 3713.48,-1439.62 
  3674.21,-1482.43 3634.19,-1524.52 3593.42,-1565.9 3551.92,-1606.54 3509.7,-1646.43 3466.77,-1685.56 3423.15,-1723.92 3378.85,-1761.49 3333.89,-1798.26 3288.28,-1834.23 
  3242.03,-1869.37 3186.86,-1909.63 3130.85,-1948.72 3074.04,-1986.62 3016.44,-2023.33 2958.09,-2058.81 2899,-2093.06 2839.2,-2126.07 2778.73,-2157.81 2717.6,-2188.27 
  2655.84,-2217.44 2593.49,-2245.3 2530.57,-2271.86 2467.1,-2297.08 2403.11,-2320.96 2338.64,-2343.5 2273.7,-2364.67 2214.47,-2382.69 2154.9,-2399.57 2095.02,-2415.31 
  2034.85,-2429.92 1974.41,-2443.37 1913.73,-2455.67 1852.83,-2466.81 1791.72,-2476.79 1730.44,-2485.6 1669,-2493.25 1607.42,-2499.72 1545.73,-2505.02 1483.96,-2509.15 
  1422.11,-2512.09 1360.22,-2513.86 1298.31,-2514.45 1235.76,-2513.85 1173.23,-2512.04 1110.75,-2509.04 1048.34,-2504.83 986.021,-2499.42 923.817,-2492.81 861.753,-2485.01 
  799.85,-2476.01 738.131,-2465.82 676.62,-2454.45 615.339,-2441.9 554.311,-2428.17 493.558,-2413.27 433.104,-2397.2 372.969,-2379.97 313.178,-2361.59 248.312,-2340.21 
  183.91,-2317.48 120,-2293.39 56.6101,-2267.97 -6.23186,-2241.22 -68.4981,-2213.16 -130.161,-2183.79 -191.193,-2153.14 -251.568,-2121.21 -311.259,-2088.02 -370.24,-2053.58 
  -428.484,-2017.92 -485.966,-1981.03 -542.66,-1942.95 -598.542,-1903.68 -653.586,-1863.25 -699.723,-1827.96 -745.221,-1791.85 -790.068,-1754.94 -834.247,-1717.23 -877.746,-1678.73 
  -920.55,-1639.47 -962.646,-1599.45 -1004.02,-1558.68 -1044.66,-1517.17 -1084.55,-1474.95 -1123.68,-1432.03 -1162.04,-1388.41 -1199.61,-1344.11 -1236.38,-1299.15 -1272.35,-1253.54 
  -1307.49,-1207.29 -1347.75,-1152.12 -1386.84,-1096.11 -1424.74,-1039.3 -1461.45,-981.701 -1496.93,-923.345 -1531.18,-864.257 -1564.19,-804.462 -1595.93,-743.987 -1626.39,-682.858 
  -1655.56,-621.104 -1683.43,-558.75 -1709.98,-495.824 -1735.2,-432.354 -1759.08,-368.369 -1781.62,-303.896 -1802.79,-238.963 -1820.81,-179.727 -1837.69,-120.158 -1853.43,-60.278 
  -1868.04,-0.109283 -1881.49,60.3266 -1893.79,121.008 -1904.93,181.912 -1914.91,243.018 -1923.72,304.302 -1931.37,365.743 -1937.84,427.319 -1943.14,489.007 -1947.27,550.784 
  -1950.22,612.629 -1951.98,674.519 -1952.57,736.431 
  "/>
<polyline clip-path="url(#clip1402)" style="stroke:#000000; stroke-width:8; stroke-opacity:1; fill:none" points="
  4549.19,736.431 4548.59,673.881 4546.79,611.354 4543.78,548.873 4539.57,486.461 4534.16,424.142 4527.55,361.939 4519.75,299.874 4510.75,237.971 4500.57,176.252 
  4489.19,114.741 4476.64,53.4603 4462.91,-7.56776 4448.01,-68.3204 4431.94,-128.775 4414.72,-188.909 4396.33,-248.701 4374.96,-313.566 4352.22,-377.968 4328.13,-441.879 
  4302.71,-505.269 4275.96,-568.111 4247.9,-630.377 4218.53,-692.04 4187.88,-753.072 4155.95,-813.447 4122.76,-873.138 4088.33,-932.118 4052.66,-990.362 4015.77,-1047.84 
  3977.69,-1104.54 3938.42,-1160.42 3897.99,-1215.46 3862.7,-1261.6 3826.59,-1307.1 3789.68,-1351.95 3751.97,-1396.13 3713.48,-1439.62 3674.21,-1482.43 3634.19,-1524.52 
  3593.42,-1565.9 3551.92,-1606.54 3509.7,-1646.43 3466.77,-1685.56 3423.15,-1723.92 3378.85,-1761.49 3333.89,-1798.26 3288.28,-1834.23 3242.03,-1869.37 3186.86,-1909.63 
  3130.85,-1948.72 3074.04,-1986.62 3016.44,-2023.33 2958.09,-2058.81 2899,-2093.06 2839.2,-2126.07 2778.73,-2157.81 2717.6,-2188.27 2655.84,-2217.44 2593.49,-2245.3 
  2530.57,-2271.86 2467.1,-2297.08 2403.11,-2320.96 2338.64,-2343.5 2273.7,-2364.67 2214.47,-2382.69 2154.9,-2399.57 2095.02,-2415.31 2034.85,-2429.92 1974.41,-2443.37 
  1913.73,-2455.67 1852.83,-2466.81 1791.72,-2476.79 1730.44,-2485.6 1669,-2493.25 1607.42,-2499.72 1545.73,-2505.02 1483.96,-2509.15 1422.11,-2512.09 1360.22,-2513.86 
  1298.31,-2514.45 1235.76,-2513.85 1173.23,-2512.04 1110.75,-2509.04 1048.34,-2504.83 986.021,-2499.42 923.817,-2492.81 861.753,-2485.01 799.85,-2476.01 738.131,-2465.82 
  676.62,-2454.45 615.339,-2441.9 554.311,-2428.17 493.558,-2413.27 433.104,-2397.2 372.969,-2379.97 313.178,-2361.59 248.312,-2340.21 183.91,-2317.48 120,-2293.39 
  56.6101,-2267.97 -6.23186,-2241.22 -68.4981,-2213.16 -130.161,-2183.79 -191.193,-2153.14 -251.568,-2121.21 -311.259,-2088.02 -370.24,-2053.58 -428.484,-2017.92 -485.966,-1981.03 
  -542.66,-1942.95 -598.542,-1903.68 -653.586,-1863.25 -699.723,-1827.96 -745.221,-1791.85 -790.068,-1754.94 -834.247,-1717.23 -877.746,-1678.73 -920.55,-1639.47 -962.646,-1599.45 
  -1004.02,-1558.68 -1044.66,-1517.17 -1084.55,-1474.95 -1123.68,-1432.03 -1162.04,-1388.41 -1199.61,-1344.11 -1236.38,-1299.15 -1272.35,-1253.54 -1307.49,-1207.29 -1347.75,-1152.12 
  -1386.84,-1096.11 -1424.74,-1039.3 -1461.45,-981.701 -1496.93,-923.345 -1531.18,-864.257 -1564.19,-804.462 -1595.93,-743.987 -1626.39,-682.858 -1655.56,-621.104 -1683.43,-558.75 
  -1709.98,-495.824 -1735.2,-432.354 -1759.08,-368.369 -1781.62,-303.896 -1802.79,-238.963 -1820.81,-179.727 -1837.69,-120.158 -1853.43,-60.278 -1868.04,-0.109283 -1881.49,60.3266 
  -1893.79,121.008 -1904.93,181.912 -1914.91,243.018 -1923.72,304.302 -1931.37,365.743 -1937.84,427.319 -1943.14,489.007 -1947.27,550.784 -1950.22,612.629 -1951.98,674.519 
  -1952.57,736.431 -1951.97,798.982 -1950.17,861.509 -1947.16,923.99 -1942.95,986.402 -1937.54,1048.72 -1930.93,1110.92 -1923.13,1172.99 -1914.13,1234.89 -1903.95,1296.61 
  -1892.57,1358.12 -1880.02,1419.4 -1866.29,1480.43 -1851.39,1541.18 -1835.32,1601.64 -1818.1,1661.77 -1799.71,1721.56 -1778.34,1786.43 -1755.6,1850.83 -1731.51,1914.74 
  -1706.09,1978.13 -1679.34,2040.97 -1651.28,2103.24 -1621.91,2164.9 -1591.26,2225.93 -1559.33,2286.31 -1526.14,2346 -1491.71,2404.98 -1456.04,2463.23 -1419.15,2520.71 
  -1381.07,2577.4 -1341.8,2633.28 -1301.37,2688.33 -1266.08,2734.46 -1229.97,2779.96 -1193.06,2824.81 -1155.35,2868.99 -1116.86,2912.49 -1077.59,2955.29 -1037.57,2997.39 
  -996.798,3038.76 -955.296,3079.4 -913.075,3119.29 -870.148,3158.42 -826.528,3196.78 -782.23,3234.35 -737.268,3271.12 -691.656,3307.09 -645.409,3342.23 -590.238,3382.49 
  -534.233,3421.58 -477.42,3459.49 -419.822,3496.19 -361.466,3531.67 -302.378,3565.93 -242.583,3598.93 -182.108,3630.67 -120.98,3661.13 -59.2249,3690.3 3.12913,3718.17 
  66.0548,3744.72 129.524,3769.94 193.51,3793.83 257.983,3816.36 322.915,3837.54 382.152,3855.55 441.721,3872.43 501.601,3888.18 561.769,3902.78 622.205,3916.23 
  682.886,3928.53 743.791,3939.67 804.896,3949.65 866.181,3958.47 927.622,3966.11 989.198,3972.59 1050.89,3977.89 1112.66,3982.01 1174.51,3984.96 1236.4,3986.73 
  1298.31,3987.31 1360.86,3986.71 1423.39,3984.91 1485.87,3981.9 1548.28,3977.69 1610.6,3972.28 1672.8,3965.67 1734.87,3957.87 1796.77,3948.87 1858.49,3938.69 
  1920,3927.32 1981.28,3914.76 2042.31,3901.03 2103.06,3886.13 2163.52,3870.07 2223.65,3852.84 2283.44,3834.46 2348.31,3813.08 2412.71,3790.34 2476.62,3766.25 
  2540.01,3740.83 2602.85,3714.08 2665.12,3686.02 2726.78,3656.66 2787.81,3626 2848.19,3594.07 2907.88,3560.88 2966.86,3526.45 3025.1,3490.78 3082.59,3453.89 
  3139.28,3415.81 3195.16,3376.54 3250.21,3336.11 3296.34,3300.82 3341.84,3264.72 3386.69,3227.8 3430.87,3190.09 3474.37,3151.6 3517.17,3112.33 3559.27,3072.31 
  3600.64,3031.54 3641.28,2990.04 3681.17,2947.82 3720.3,2904.89 3758.66,2861.27 3796.23,2816.97 3833,2772.01 3868.97,2726.4 3904.11,2680.15 3944.37,2624.98 
  3983.46,2568.97 4021.36,2512.16 4058.07,2454.56 4093.55,2396.21 4127.8,2337.12 4160.81,2277.32 4192.55,2216.85 4223.01,2155.72 4252.18,2093.97 4280.05,2031.61 
  4306.6,1968.69 4331.82,1905.22 4355.7,1841.23 4378.24,1776.76 4399.41,1711.83 4417.43,1652.59 4434.31,1593.02 4450.06,1533.14 4464.66,1472.97 4478.11,1412.54 
  4490.41,1351.85 4501.55,1290.95 4511.53,1229.85 4520.34,1168.56 4527.99,1107.12 4534.46,1045.54 4539.76,983.856 4543.89,922.078 4546.84,860.233 4548.6,798.344 
  4549.19,736.431 
  "/>
<polyline clip-path="url(#clip1402)" style="stroke:#000000; stroke-width:8; stroke-opacity:1; fill:none" points="
  1095.13,736.431 1095.11,734.477 1095.05,732.523 1094.96,730.57 1094.83,728.62 1094.66,726.672 1094.45,724.728 1094.21,722.789 1093.93,720.854 1093.61,718.926 
  1093.25,717.004 1092.86,715.089 1092.43,713.181 1091.97,711.283 1091.47,709.394 1090.93,707.514 1090.35,705.646 1089.68,703.619 1088.97,701.606 1088.22,699.609 
  1087.43,697.628 1086.59,695.664 1085.71,693.719 1084.8,691.792 1083.84,689.884 1082.84,687.998 1081.8,686.132 1080.73,684.289 1079.61,682.469 1078.46,680.673 
  1077.27,678.901 1076.04,677.155 1074.78,675.435 1073.68,673.993 1072.55,672.571 1071.4,671.17 1070.22,669.789 1069.01,668.43 1067.79,667.092 1066.54,665.776 
  1065.26,664.484 1063.96,663.214 1062.65,661.967 1061.3,660.744 1059.94,659.546 1058.56,658.371 1057.15,657.222 1055.73,656.098 1054.28,655 1052.56,653.742 
  1050.81,652.52 1049.03,651.336 1047.23,650.189 1045.41,649.08 1043.56,648.01 1041.69,646.978 1039.8,645.986 1037.89,645.035 1035.96,644.123 1034.01,643.252 
  1032.05,642.422 1030.06,641.634 1028.06,640.888 1026.05,640.184 1024.02,639.522 1022.17,638.959 1020.31,638.431 1018.44,637.939 1016.56,637.483 1014.67,637.063 
  1012.77,636.678 1010.87,636.33 1008.96,636.018 1007.04,635.743 1005.12,635.504 1003.2,635.302 1001.27,635.136 999.341,635.007 997.409,634.915 995.474,634.86 
  993.54,634.841 991.585,634.86 989.631,634.916 987.679,635.01 985.728,635.142 983.781,635.311 981.837,635.518 979.897,635.761 977.963,636.043 976.034,636.361 
  974.112,636.716 972.197,637.108 970.29,637.538 968.391,638.003 966.502,638.505 964.623,639.044 962.754,639.618 960.727,640.286 958.715,640.997 956.718,641.749 
  954.737,642.544 952.773,643.38 950.827,644.257 948.9,645.174 946.993,646.132 945.106,647.13 943.241,648.167 941.398,649.243 939.577,650.358 937.781,651.511 
  936.009,652.701 934.263,653.928 932.543,655.191 931.101,656.294 929.679,657.422 928.278,658.576 926.897,659.755 925.538,660.957 924.2,662.184 922.885,663.435 
  921.592,664.709 920.322,666.006 919.075,667.326 917.853,668.667 916.654,670.03 915.48,671.414 914.331,672.82 913.207,674.245 912.108,675.69 910.85,677.414 
  909.629,679.164 908.444,680.94 907.297,682.74 906.188,684.563 905.118,686.41 904.087,688.278 903.095,690.168 902.143,692.079 901.231,694.008 900.36,695.957 
  899.531,697.923 898.743,699.907 897.996,701.906 897.292,703.921 896.63,705.95 896.067,707.801 895.54,709.663 895.048,711.534 894.591,713.414 894.171,715.303 
  893.787,717.199 893.438,719.103 893.127,721.012 892.851,722.927 892.612,724.847 892.41,726.772 892.244,728.699 892.115,730.63 892.023,732.563 891.968,734.497 
  891.95,736.431 891.968,738.386 892.025,740.34 892.119,742.293 892.25,744.243 892.419,746.19 892.626,748.134 892.87,750.074 893.151,752.008 893.469,753.937 
  893.825,755.859 894.217,757.774 894.646,759.681 895.112,761.58 895.614,763.469 896.152,765.348 896.726,767.217 897.395,769.244 898.105,771.256 898.858,773.254 
  899.652,775.234 900.488,777.198 901.365,779.144 902.283,781.071 903.241,782.978 904.238,784.865 905.276,786.73 906.352,788.574 907.466,790.394 908.619,792.19 
  909.809,793.962 911.036,795.708 912.3,797.428 913.402,798.87 914.531,800.292 915.684,801.693 916.863,803.074 918.066,804.433 919.293,805.771 920.544,807.086 
  921.818,808.379 923.115,809.649 924.434,810.896 925.775,812.119 927.139,813.317 928.523,814.491 929.928,815.64 931.353,816.764 932.798,817.863 934.523,819.121 
  936.273,820.342 938.048,821.527 939.848,822.674 941.672,823.783 943.518,824.853 945.387,825.884 947.277,826.876 949.187,827.828 951.117,828.74 953.065,829.611 
  955.032,830.44 957.015,831.229 959.015,831.975 961.03,832.679 963.059,833.341 964.91,833.904 966.771,834.431 968.643,834.923 970.523,835.38 972.411,835.8 
  974.308,836.184 976.211,836.533 978.121,836.844 980.036,837.12 981.956,837.359 983.88,837.561 985.808,837.727 987.738,837.856 989.671,837.948 991.605,838.003 
  993.54,838.021 995.494,838.003 997.448,837.946 999.401,837.852 1001.35,837.721 1003.3,837.552 1005.24,837.345 1007.18,837.101 1009.12,836.82 1011.05,836.502 
  1012.97,836.146 1014.88,835.754 1016.79,835.325 1018.69,834.86 1020.58,834.357 1022.46,833.819 1024.33,833.245 1026.35,832.577 1028.36,831.866 1030.36,831.113 
  1032.34,830.319 1034.31,829.483 1036.25,828.606 1038.18,827.688 1040.09,826.73 1041.97,825.733 1043.84,824.695 1045.68,823.619 1047.5,822.505 1049.3,821.352 
  1051.07,820.162 1052.82,818.935 1054.54,817.671 1055.98,816.569 1057.4,815.44 1058.8,814.287 1060.18,813.108 1061.54,811.905 1062.88,810.678 1064.19,809.428 
  1065.49,808.153 1066.76,806.857 1068,805.537 1069.23,804.196 1070.43,802.833 1071.6,801.448 1072.75,800.043 1073.87,798.618 1074.97,797.173 1076.23,795.448 
  1077.45,793.698 1078.64,791.923 1079.78,790.123 1080.89,788.299 1081.96,786.453 1082.99,784.584 1083.98,782.694 1084.94,780.784 1085.85,778.854 1086.72,776.906 
  1087.55,774.939 1088.34,772.956 1089.08,770.956 1089.79,768.942 1090.45,766.912 1091.01,765.061 1091.54,763.2 1092.03,761.329 1092.49,759.448 1092.91,757.56 
  1093.29,755.663 1093.64,753.76 1093.95,751.851 1094.23,749.935 1094.47,748.015 1094.67,746.091 1094.84,744.163 1094.96,742.233 1095.06,740.3 1095.11,738.366 
  1095.13,736.431 
  "/>
<polyline clip-path="url(#clip1402)" style="stroke:#000000; stroke-width:8; stroke-opacity:1; fill:none" points="
  1399.9,736.431 1298.31,634.841 1196.72,736.431 1298.31,838.021 1399.9,736.431 
  "/>
<polyline clip-path="url(#clip1402)" style="stroke:#000000; stroke-width:8; stroke-opacity:1; fill:none" points="
  1704.67,736.431 1552.29,648.452 1552.29,824.411 1704.67,736.431 
  "/>
</svg>
