<?xml version="1.0" encoding="utf-8"?>
<svg xmlns="http://www.w3.org/2000/svg" xmlns:xlink="http://www.w3.org/1999/xlink" width="600" height="400" viewBox="0 0 2400 1600">
<defs>
  <clipPath id="clip9900">
    <rect x="0" y="0" width="2400" height="1600"/>
  </clipPath>
</defs>
<polygon clip-path="url(#clip9900)" points="
0,1600 2400,1600 2400,0 0,0 
  " fill="#ffffff" fill-rule="evenodd" fill-opacity="1"/>
<defs>
  <clipPath id="clip9901">
    <rect x="480" y="0" width="1681" height="1600"/>
  </clipPath>
</defs>
<polygon clip-path="url(#clip9900)" points="
498.74,1505.26 1956.76,1505.26 1956.76,47.2441 498.74,47.2441 
  " fill="#ffffff" fill-rule="evenodd" fill-opacity="1"/>
<defs>
  <clipPath id="clip9902">
    <rect x="498" y="47" width="1459" height="1459"/>
  </clipPath>
</defs>
<polyline clip-path="url(#clip9902)" style="stroke:#000000; stroke-width:2; stroke-opacity:0.1; fill:none" points="
  636.719,1505.26 636.719,47.2441 
  "/>
<polyline clip-path="url(#clip9902)" style="stroke:#000000; stroke-width:2; stroke-opacity:0.1; fill:none" points="
  905.368,1505.26 905.368,47.2441 
  "/>
<polyline clip-path="url(#clip9902)" style="stroke:#000000; stroke-width:2; stroke-opacity:0.1; fill:none" points="
  1174.02,1505.26 1174.02,47.2441 
  "/>
<polyline clip-path="url(#clip9902)" style="stroke:#000000; stroke-width:2; stroke-opacity:0.1; fill:none" points="
  1442.67,1505.26 1442.67,47.2441 
  "/>
<polyline clip-path="url(#clip9902)" style="stroke:#000000; stroke-width:2; stroke-opacity:0.1; fill:none" points="
  1711.32,1505.26 1711.32,47.2441 
  "/>
<polyline clip-path="url(#clip9902)" style="stroke:#000000; stroke-width:2; stroke-opacity:0.1; fill:none" points="
  498.74,1313.55 1956.76,1313.55 
  "/>
<polyline clip-path="url(#clip9902)" style="stroke:#000000; stroke-width:2; stroke-opacity:0.1; fill:none" points="
  498.74,1044.9 1956.76,1044.9 
  "/>
<polyline clip-path="url(#clip9902)" style="stroke:#000000; stroke-width:2; stroke-opacity:0.1; fill:none" points="
  498.74,776.252 1956.76,776.252 
  "/>
<polyline clip-path="url(#clip9902)" style="stroke:#000000; stroke-width:2; stroke-opacity:0.1; fill:none" points="
  498.74,507.602 1956.76,507.602 
  "/>
<polyline clip-path="url(#clip9902)" style="stroke:#000000; stroke-width:2; stroke-opacity:0.1; fill:none" points="
  498.74,238.953 1956.76,238.953 
  "/>
<polyline clip-path="url(#clip9900)" style="stroke:#000000; stroke-width:4; stroke-opacity:1; fill:none" points="
  498.74,1505.26 1956.76,1505.26 
  "/>
<polyline clip-path="url(#clip9900)" style="stroke:#000000; stroke-width:4; stroke-opacity:1; fill:none" points="
  498.74,1505.26 498.74,47.2441 
  "/>
<polyline clip-path="url(#clip9900)" style="stroke:#000000; stroke-width:4; stroke-opacity:1; fill:none" points="
  636.719,1505.26 636.719,1483.39 
  "/>
<polyline clip-path="url(#clip9900)" style="stroke:#000000; stroke-width:4; stroke-opacity:1; fill:none" points="
  905.368,1505.26 905.368,1483.39 
  "/>
<polyline clip-path="url(#clip9900)" style="stroke:#000000; stroke-width:4; stroke-opacity:1; fill:none" points="
  1174.02,1505.26 1174.02,1483.39 
  "/>
<polyline clip-path="url(#clip9900)" style="stroke:#000000; stroke-width:4; stroke-opacity:1; fill:none" points="
  1442.67,1505.26 1442.67,1483.39 
  "/>
<polyline clip-path="url(#clip9900)" style="stroke:#000000; stroke-width:4; stroke-opacity:1; fill:none" points="
  1711.32,1505.26 1711.32,1483.39 
  "/>
<polyline clip-path="url(#clip9900)" style="stroke:#000000; stroke-width:4; stroke-opacity:1; fill:none" points="
  498.74,1313.55 520.61,1313.55 
  "/>
<polyline clip-path="url(#clip9900)" style="stroke:#000000; stroke-width:4; stroke-opacity:1; fill:none" points="
  498.74,1044.9 520.61,1044.9 
  "/>
<polyline clip-path="url(#clip9900)" style="stroke:#000000; stroke-width:4; stroke-opacity:1; fill:none" points="
  498.74,776.252 520.61,776.252 
  "/>
<polyline clip-path="url(#clip9900)" style="stroke:#000000; stroke-width:4; stroke-opacity:1; fill:none" points="
  498.74,507.602 520.61,507.602 
  "/>
<polyline clip-path="url(#clip9900)" style="stroke:#000000; stroke-width:4; stroke-opacity:1; fill:none" points="
  498.74,238.953 520.61,238.953 
  "/>
<g clip-path="url(#clip9900)">
<text style="fill:#000000; fill-opacity:1; font-family:Arial,Helvetica Neue,Helvetica,sans-serif; font-size:48px; text-anchor:middle;" transform="rotate(0, 636.719, 1559.26)" x="636.719" y="1559.26">-2.5</text>
</g>
<g clip-path="url(#clip9900)">
<text style="fill:#000000; fill-opacity:1; font-family:Arial,Helvetica Neue,Helvetica,sans-serif; font-size:48px; text-anchor:middle;" transform="rotate(0, 905.368, 1559.26)" x="905.368" y="1559.26">0.0</text>
</g>
<g clip-path="url(#clip9900)">
<text style="fill:#000000; fill-opacity:1; font-family:Arial,Helvetica Neue,Helvetica,sans-serif; font-size:48px; text-anchor:middle;" transform="rotate(0, 1174.02, 1559.26)" x="1174.02" y="1559.26">2.5</text>
</g>
<g clip-path="url(#clip9900)">
<text style="fill:#000000; fill-opacity:1; font-family:Arial,Helvetica Neue,Helvetica,sans-serif; font-size:48px; text-anchor:middle;" transform="rotate(0, 1442.67, 1559.26)" x="1442.67" y="1559.26">5.0</text>
</g>
<g clip-path="url(#clip9900)">
<text style="fill:#000000; fill-opacity:1; font-family:Arial,Helvetica Neue,Helvetica,sans-serif; font-size:48px; text-anchor:middle;" transform="rotate(0, 1711.32, 1559.26)" x="1711.32" y="1559.26">7.5</text>
</g>
<g clip-path="url(#clip9900)">
<text style="fill:#000000; fill-opacity:1; font-family:Arial,Helvetica Neue,Helvetica,sans-serif; font-size:48px; text-anchor:end;" transform="rotate(0, 474.74, 1331.05)" x="474.74" y="1331.05">-5.0</text>
</g>
<g clip-path="url(#clip9900)">
<text style="fill:#000000; fill-opacity:1; font-family:Arial,Helvetica Neue,Helvetica,sans-serif; font-size:48px; text-anchor:end;" transform="rotate(0, 474.74, 1062.4)" x="474.74" y="1062.4">-2.5</text>
</g>
<g clip-path="url(#clip9900)">
<text style="fill:#000000; fill-opacity:1; font-family:Arial,Helvetica Neue,Helvetica,sans-serif; font-size:48px; text-anchor:end;" transform="rotate(0, 474.74, 793.752)" x="474.74" y="793.752">0.0</text>
</g>
<g clip-path="url(#clip9900)">
<text style="fill:#000000; fill-opacity:1; font-family:Arial,Helvetica Neue,Helvetica,sans-serif; font-size:48px; text-anchor:end;" transform="rotate(0, 474.74, 525.102)" x="474.74" y="525.102">2.5</text>
</g>
<g clip-path="url(#clip9900)">
<text style="fill:#000000; fill-opacity:1; font-family:Arial,Helvetica Neue,Helvetica,sans-serif; font-size:48px; text-anchor:end;" transform="rotate(0, 474.74, 256.453)" x="474.74" y="256.453">5.0</text>
</g>
<g clip-path="url(#clip9900)">
<text style="fill:#000000; fill-opacity:1; font-family:Arial,Helvetica Neue,Helvetica,sans-serif; font-size:66px; text-anchor:middle;" transform="rotate(0, 1227.75, 1639.12)" x="1227.75" y="1639.12">Re(x)</text>
</g>
<g clip-path="url(#clip9900)">
<text style="fill:#000000; fill-opacity:1; font-family:Arial,Helvetica Neue,Helvetica,sans-serif; font-size:66px; text-anchor:middle;" transform="rotate(-90, 344.162, 776.252)" x="344.162" y="776.252">Im(x)</text>
</g>
<polygon clip-path="url(#clip9902)" points="
-2210.97,776.252 797.908,776.252 797.928,774.205 797.986,772.16 798.084,770.115 798.22,768.073 798.395,766.034 798.609,763.999 798.862,761.968 799.153,759.942 
  799.483,757.922 799.852,755.909 800.258,753.903 800.703,751.905 801.186,749.916 801.706,747.937 802.264,745.968 802.86,744.01 803.559,741.863 804.304,739.732 
  805.094,737.617 805.928,735.519 806.805,733.439 807.726,731.378 808.691,729.336 809.698,727.316 810.747,725.317 811.838,723.34 812.97,721.387 814.143,719.458 
  815.356,717.554 816.609,715.676 817.901,713.825 819.232,712.001 820.394,710.472 821.583,708.965 822.798,707.478 824.04,706.014 825.308,704.572 826.602,703.153 
  827.92,701.758 829.263,700.386 830.631,699.038 832.023,697.715 833.438,696.417 834.875,695.145 836.336,693.898 837.818,692.678 839.322,691.484 840.847,690.318 
  842.667,688.981 844.514,687.683 846.388,686.425 848.288,685.205 850.213,684.026 852.163,682.888 854.136,681.791 856.132,680.735 858.149,679.722 860.188,678.752 
  862.246,677.824 864.323,676.94 866.419,676.099 868.531,675.303 870.66,674.552 872.804,673.845 874.781,673.237 876.768,672.668 878.767,672.137 880.775,671.644 
  882.792,671.19 884.818,670.775 886.851,670.399 888.891,670.063 890.938,669.765 892.989,669.507 895.045,669.289 897.105,669.11 899.169,668.971 901.234,668.872 
  903.301,668.812 905.368,668.792 907.415,668.812 909.461,668.87 911.505,668.967 913.547,669.104 915.586,669.279 917.622,669.493 919.653,669.746 921.678,670.037 
  923.698,670.367 925.712,670.735 927.717,671.142 929.715,671.586 931.704,672.069 933.683,672.59 935.653,673.148 937.611,673.743 939.757,674.443 941.888,675.188 
  944.003,675.977 946.101,676.811 948.181,677.689 950.242,678.61 952.284,679.574 954.304,680.581 956.304,681.63 958.28,682.721 960.233,683.854 962.162,685.027 
  964.066,686.24 965.944,687.493 967.795,688.785 969.619,690.116 971.148,691.277 972.656,692.466 974.142,693.682 975.606,694.924 977.048,696.192 978.467,697.485 
  979.863,698.804 981.235,700.147 982.582,701.515 983.905,702.906 985.203,704.321 986.476,705.759 987.722,707.219 988.942,708.702 990.136,710.206 991.302,711.731 
  992.639,713.55 993.937,715.398 995.196,717.272 996.415,719.172 997.594,721.097 998.732,723.047 999.829,725.02 1000.88,727.016 1001.9,729.033 1002.87,731.071 
  1003.8,733.13 1004.68,735.207 1005.52,737.302 1006.32,739.415 1007.07,741.544 1007.78,743.688 1008.38,745.664 1008.95,747.652 1009.48,749.65 1009.98,751.659 
  1010.43,753.676 1010.84,755.702 1011.22,757.735 1011.56,759.775 1011.85,761.821 1012.11,763.873 1012.33,765.929 1012.51,767.989 1012.65,770.052 1012.75,772.117 
  1012.81,774.184 1012.83,776.252 1120.29,776.252 1227.75,668.792 1227.75,668.792 1335.21,776.252 1496.4,869.315 1496.4,683.189 1496.4,683.189 1657.59,776.252 
  1657.59,776.252 1496.4,869.315 1496.4,869.315 1335.21,776.252 1335.21,776.252 1227.75,883.712 1227.75,883.712 1120.29,776.252 1120.29,776.252 1012.83,776.252 
  1012.83,776.252 1012.81,778.299 1012.75,780.344 1012.65,782.389 1012.52,784.431 1012.34,786.47 1012.13,788.505 1011.87,790.536 1011.58,792.562 1011.25,794.582 
  1010.89,796.595 1010.48,798.601 1010.03,800.599 1009.55,802.588 1009.03,804.567 1008.47,806.536 1007.88,808.494 1007.18,810.641 1006.43,812.772 1005.64,814.887 
  1004.81,816.985 1003.93,819.065 1003.01,821.126 1002.05,823.167 1001.04,825.188 999.99,827.187 998.899,829.164 997.767,831.117 996.594,833.046 995.381,834.95 
  994.128,836.828 992.835,838.679 991.505,840.503 990.343,842.031 989.154,843.539 987.939,845.025 986.697,846.49 985.429,847.932 984.135,849.351 982.817,850.746 
  981.473,852.118 980.106,853.466 978.714,854.789 977.299,856.087 975.861,857.359 974.401,858.606 972.919,859.826 971.415,861.019 969.889,862.186 968.07,863.522 
  966.223,864.82 964.349,866.079 962.449,867.299 960.523,868.478 958.574,869.616 956.601,870.713 954.605,871.768 952.587,872.782 950.549,873.752 948.491,874.68 
  946.414,875.564 944.318,876.405 942.206,877.201 940.077,877.952 937.933,878.659 935.956,879.267 933.968,879.836 931.97,880.367 929.962,880.86 927.944,881.314 
  925.919,881.729 923.885,882.104 921.845,882.441 919.799,882.739 917.747,882.996 915.691,883.215 913.631,883.394 911.568,883.533 909.503,883.632 907.436,883.692 
  905.368,883.712 903.322,883.692 901.276,883.634 899.232,883.536 897.19,883.4 895.15,883.225 893.115,883.011 891.084,882.758 889.058,882.467 887.038,882.137 
  885.025,881.769 883.019,881.362 881.022,880.917 879.033,880.435 877.053,879.914 875.084,879.356 873.126,878.761 870.98,878.061 868.849,877.316 866.733,876.526 
  864.635,875.693 862.555,874.815 860.494,873.894 858.453,872.93 856.432,871.923 854.433,870.874 852.457,869.783 850.503,868.65 848.574,867.477 846.671,866.264 
  844.793,865.011 842.941,863.719 841.118,862.388 839.589,861.227 838.081,860.038 836.595,858.822 835.131,857.58 833.689,856.312 832.27,855.019 830.874,853.7 
  829.502,852.357 828.155,850.989 826.832,849.598 825.534,848.183 824.261,846.745 823.015,845.285 821.794,843.802 820.601,842.298 819.434,840.773 818.098,838.954 
  816.8,837.106 815.541,835.232 814.322,833.332 813.143,831.407 812.004,829.457 810.907,827.484 809.852,825.488 808.839,823.471 807.868,821.433 806.94,819.374 
  806.056,817.297 805.216,815.202 804.42,813.089 803.668,810.96 802.961,808.816 802.354,806.84 801.784,804.852 801.253,802.854 800.761,800.845 800.307,798.828 
  799.892,796.802 799.516,794.769 799.179,792.729 798.882,790.683 798.624,788.631 798.405,786.575 798.227,784.515 798.087,782.452 797.988,780.386 797.928,778.32 
  797.908,776.252 -2210.97,776.252 -2210.33,842.417 -2208.42,908.557 -2205.24,974.648 -2200.79,1040.67 -2195.07,1106.59 -2188.08,1172.38 -2179.82,1238.03 -2170.31,1303.51 
  -2159.53,1368.8 -2147.5,1433.86 -2134.22,1498.68 -2119.7,1563.24 -2103.94,1627.5 -2086.94,1691.45 -2068.72,1755.06 -2049.28,1818.3 -2026.66,1886.92 -2002.61,1955.04 
  -1977.14,2022.64 -1950.24,2089.7 -1921.95,2156.17 -1892.27,2222.03 -1861.2,2287.26 -1828.78,2351.82 -1795.01,2415.68 -1759.9,2478.82 -1723.47,2541.21 -1685.74,2602.82 
  -1646.73,2663.62 -1606.44,2723.59 -1564.91,2782.7 -1522.14,2840.93 -1484.81,2889.73 -1446.62,2937.86 -1407.57,2985.29 -1367.68,3032.03 -1326.96,3078.04 -1285.43,3123.32 
  -1243.09,3167.84 -1199.97,3211.61 -1156.07,3254.6 -1111.41,3296.79 -1066,3338.18 -1019.86,3378.75 -973.004,3418.5 -925.444,3457.4 -877.197,3495.44 -828.278,3532.61 
  -769.919,3575.2 -710.678,3616.55 -650.582,3656.64 -589.656,3695.47 -527.929,3733 -465.426,3769.23 -402.177,3804.14 -338.207,3837.71 -273.547,3869.94 -208.224,3900.79 
  -142.267,3930.27 -75.7058,3958.35 -8.56894,3985.04 59.1136,4010.3 127.312,4034.14 195.996,4056.54 258.655,4075.59 321.666,4093.45 385.006,4110.1 448.651,4125.55 
  512.579,4139.78 576.766,4152.79 641.189,4164.57 705.825,4175.13 770.651,4184.45 835.642,4192.54 900.775,4199.39 966.028,4204.99 1031.37,4209.36 1096.79,4212.47 
  1162.26,4214.34 1227.75,4214.97 1293.91,4214.33 1360.05,4212.42 1426.14,4209.24 1492.16,4204.79 1558.08,4199.07 1623.88,4192.08 1689.53,4183.82 1755.01,4174.31 
  1820.29,4163.53 1885.36,4151.5 1950.18,4138.22 2014.73,4123.7 2079,4107.94 2142.95,4090.94 2206.55,4072.72 2269.8,4053.28 2338.41,4030.66 2406.54,4006.61 
  2474.14,3981.14 2541.19,3954.24 2607.67,3925.95 2673.53,3896.27 2738.75,3865.2 2803.31,3832.78 2867.18,3799.01 2930.32,3763.9 2992.71,3727.47 3054.31,3689.74 
  3115.12,3650.73 3175.09,3610.44 3234.2,3568.91 3292.42,3526.14 3341.23,3488.81 3389.35,3450.62 3436.79,3411.57 3483.52,3371.68 3529.53,3330.96 3574.81,3289.43 
  3619.34,3247.09 3663.1,3203.97 3706.09,3160.07 3748.29,3115.41 3789.68,3070 3830.25,3023.86 3869.99,2977 3908.89,2929.44 3946.93,2881.2 3984.11,2832.28 
  4026.69,2773.92 4068.04,2714.68 4108.14,2654.58 4146.96,2593.66 4184.5,2531.93 4220.73,2469.43 4255.64,2406.18 4289.21,2342.21 4321.43,2277.55 4352.29,2212.22 
  4381.77,2146.27 4409.85,2079.71 4436.53,2012.57 4461.8,1944.89 4485.63,1876.69 4508.03,1808 4527.09,1745.34 4544.94,1682.33 4561.6,1618.99 4577.04,1555.35 
  4591.27,1491.42 4604.28,1427.23 4616.07,1362.81 4626.63,1298.17 4635.95,1233.35 4644.04,1168.36 4650.88,1103.22 4656.49,1037.97 4660.85,972.625 4663.97,907.207 
  4665.84,841.741 4666.46,776.252 4666.46,776.252 4665.83,710.087 4663.92,643.947 4660.74,577.856 4656.28,511.839 4650.56,445.919 4643.57,380.121 4635.32,314.471 
  4625.8,248.991 4615.03,183.706 4603,118.641 4589.72,53.8195 4575.2,-10.7347 4559.44,-74.9976 4542.44,-138.945 4524.22,-202.554 4504.77,-265.8 4482.16,-334.414 
  4458.11,-402.537 4432.63,-470.14 4405.74,-537.192 4377.45,-603.665 4347.76,-669.529 4316.7,-734.755 4284.28,-799.314 4250.5,-863.177 4215.39,-926.317 4178.97,-988.705 
  4141.24,-1050.31 4102.22,-1111.12 4061.94,-1171.09 4020.4,-1230.2 3977.64,-1288.42 3940.31,-1337.23 3902.11,-1385.35 3863.07,-1432.79 3823.18,-1479.52 3782.46,-1525.53 
  3740.93,-1570.81 3698.59,-1615.34 3655.47,-1659.1 3611.57,-1702.09 3566.9,-1744.29 3521.5,-1785.68 3475.36,-1826.25 3428.5,-1865.99 3380.94,-1904.89 3332.69,-1942.93 
  3283.77,-1980.11 3225.41,-2022.69 3166.17,-2064.04 3106.08,-2104.14 3045.15,-2142.96 2983.42,-2180.5 2920.92,-2216.73 2857.67,-2251.64 2793.7,-2285.21 2729.04,-2317.43 
  2663.72,-2348.29 2597.76,-2377.77 2531.2,-2405.85 2464.07,-2432.53 2396.38,-2457.8 2328.18,-2481.63 2259.5,-2504.03 2196.84,-2523.09 2133.83,-2540.94 2070.49,-2557.6 
  2006.85,-2573.04 1942.92,-2587.27 1878.73,-2600.28 1814.31,-2612.07 1749.67,-2622.63 1684.85,-2631.95 1619.85,-2640.04 1554.72,-2646.88 1489.47,-2652.49 1424.12,-2656.85 
  1358.7,-2659.97 1293.24,-2661.84 1227.75,-2662.46 1161.58,-2661.83 1095.44,-2659.92 1029.35,-2656.74 963.335,-2652.28 897.415,-2646.56 831.617,-2639.57 765.967,-2631.32 
  700.487,-2621.8 635.202,-2611.03 570.137,-2599 505.316,-2585.72 440.761,-2571.2 376.499,-2555.44 312.551,-2538.44 248.942,-2520.22 185.696,-2500.77 117.082,-2478.16 
  48.9593,-2454.11 -18.6435,-2428.63 -85.6962,-2401.74 -152.169,-2373.45 -218.033,-2343.76 -283.259,-2312.7 -347.818,-2280.28 -411.681,-2246.5 -474.821,-2211.39 -537.209,-2174.97 
  -598.818,-2137.24 -659.621,-2098.22 -719.591,-2057.94 -778.702,-2016.4 -836.927,-1973.64 -885.729,-1936.31 -933.857,-1898.11 -981.294,-1859.07 -1028.03,-1819.18 -1074.04,-1778.46 
  -1119.32,-1736.93 -1163.84,-1694.59 -1207.61,-1651.47 -1250.6,-1607.57 -1292.79,-1562.9 -1334.18,-1517.5 -1374.75,-1471.36 -1414.5,-1424.5 -1453.4,-1376.94 -1491.44,-1328.69 
  -1528.61,-1279.77 -1571.2,-1221.41 -1612.55,-1162.17 -1652.64,-1102.08 -1691.47,-1041.15 -1729,-979.425 -1765.23,-916.922 -1800.14,-853.673 -1833.71,-789.703 -1865.94,-725.043 
  -1896.79,-659.72 -1926.27,-593.763 -1954.35,-527.202 -1981.04,-460.065 -2006.3,-392.383 -2030.14,-324.184 -2052.54,-255.5 -2071.59,-192.841 -2089.45,-129.83 -2106.1,-66.4905 
  -2121.55,-2.84532 -2135.78,61.0825 -2148.79,125.27 -2160.57,189.693 -2171.13,254.329 -2180.45,319.155 -2188.54,384.146 -2195.39,449.279 -2200.99,514.531 -2205.36,579.878 
  -2208.47,645.297 -2210.34,710.762 -2210.97,776.252 -2210.97,776.252 
  " fill="#009af9" fill-rule="evenodd" fill-opacity="1"/>
<polyline clip-path="url(#clip9902)" style="stroke:#000000; stroke-width:8; stroke-opacity:0; fill:none" points="
  -2210.97,776.252 797.908,776.252 797.928,774.205 797.986,772.16 798.084,770.115 798.22,768.073 798.395,766.034 798.609,763.999 798.862,761.968 799.153,759.942 
  799.483,757.922 799.852,755.909 800.258,753.903 800.703,751.905 801.186,749.916 801.706,747.937 802.264,745.968 802.86,744.01 803.559,741.863 804.304,739.732 
  805.094,737.617 805.928,735.519 806.805,733.439 807.726,731.378 808.691,729.336 809.698,727.316 810.747,725.317 811.838,723.34 812.97,721.387 814.143,719.458 
  815.356,717.554 816.609,715.676 817.901,713.825 819.232,712.001 820.394,710.472 821.583,708.965 822.798,707.478 824.04,706.014 825.308,704.572 826.602,703.153 
  827.92,701.758 829.263,700.386 830.631,699.038 832.023,697.715 833.438,696.417 834.875,695.145 836.336,693.898 837.818,692.678 839.322,691.484 840.847,690.318 
  842.667,688.981 844.514,687.683 846.388,686.425 848.288,685.205 850.213,684.026 852.163,682.888 854.136,681.791 856.132,680.735 858.149,679.722 860.188,678.752 
  862.246,677.824 864.323,676.94 866.419,676.099 868.531,675.303 870.66,674.552 872.804,673.845 874.781,673.237 876.768,672.668 878.767,672.137 880.775,671.644 
  882.792,671.19 884.818,670.775 886.851,670.399 888.891,670.063 890.938,669.765 892.989,669.507 895.045,669.289 897.105,669.11 899.169,668.971 901.234,668.872 
  903.301,668.812 905.368,668.792 907.415,668.812 909.461,668.87 911.505,668.967 913.547,669.104 915.586,669.279 917.622,669.493 919.653,669.746 921.678,670.037 
  923.698,670.367 925.712,670.735 927.717,671.142 929.715,671.586 931.704,672.069 933.683,672.59 935.653,673.148 937.611,673.743 939.757,674.443 941.888,675.188 
  944.003,675.977 946.101,676.811 948.181,677.689 950.242,678.61 952.284,679.574 954.304,680.581 956.304,681.63 958.28,682.721 960.233,683.854 962.162,685.027 
  964.066,686.24 965.944,687.493 967.795,688.785 969.619,690.116 971.148,691.277 972.656,692.466 974.142,693.682 975.606,694.924 977.048,696.192 978.467,697.485 
  979.863,698.804 981.235,700.147 982.582,701.515 983.905,702.906 985.203,704.321 986.476,705.759 987.722,707.219 988.942,708.702 990.136,710.206 991.302,711.731 
  992.639,713.55 993.937,715.398 995.196,717.272 996.415,719.172 997.594,721.097 998.732,723.047 999.829,725.02 1000.88,727.016 1001.9,729.033 1002.87,731.071 
  1003.8,733.13 1004.68,735.207 1005.52,737.302 1006.32,739.415 1007.07,741.544 1007.78,743.688 1008.38,745.664 1008.95,747.652 1009.48,749.65 1009.98,751.659 
  1010.43,753.676 1010.84,755.702 1011.22,757.735 1011.56,759.775 1011.85,761.821 1012.11,763.873 1012.33,765.929 1012.51,767.989 1012.65,770.052 1012.75,772.117 
  1012.81,774.184 1012.83,776.252 1120.29,776.252 1227.75,668.792 1335.21,776.252 1496.4,869.315 1496.4,683.189 1657.59,776.252 
  1496.4,869.315 1335.21,776.252 1227.75,883.712 1120.29,776.252 1012.83,776.252 
  1012.81,778.299 1012.75,780.344 1012.65,782.389 1012.52,784.431 1012.34,786.47 1012.13,788.505 1011.87,790.536 1011.58,792.562 1011.25,794.582 
  1010.89,796.595 1010.48,798.601 1010.03,800.599 1009.55,802.588 1009.03,804.567 1008.47,806.536 1007.88,808.494 1007.18,810.641 1006.43,812.772 1005.64,814.887 
  1004.81,816.985 1003.93,819.065 1003.01,821.126 1002.05,823.167 1001.04,825.188 999.99,827.187 998.899,829.164 997.767,831.117 996.594,833.046 995.381,834.95 
  994.128,836.828 992.835,838.679 991.505,840.503 990.343,842.031 989.154,843.539 987.939,845.025 986.697,846.49 985.429,847.932 984.135,849.351 982.817,850.746 
  981.473,852.118 980.106,853.466 978.714,854.789 977.299,856.087 975.861,857.359 974.401,858.606 972.919,859.826 971.415,861.019 969.889,862.186 968.07,863.522 
  966.223,864.82 964.349,866.079 962.449,867.299 960.523,868.478 958.574,869.616 956.601,870.713 954.605,871.768 952.587,872.782 950.549,873.752 948.491,874.68 
  946.414,875.564 944.318,876.405 942.206,877.201 940.077,877.952 937.933,878.659 935.956,879.267 933.968,879.836 931.97,880.367 929.962,880.86 927.944,881.314 
  925.919,881.729 923.885,882.104 921.845,882.441 919.799,882.739 917.747,882.996 915.691,883.215 913.631,883.394 911.568,883.533 909.503,883.632 907.436,883.692 
  905.368,883.712 903.322,883.692 901.276,883.634 899.232,883.536 897.19,883.4 895.15,883.225 893.115,883.011 891.084,882.758 889.058,882.467 887.038,882.137 
  885.025,881.769 883.019,881.362 881.022,880.917 879.033,880.435 877.053,879.914 875.084,879.356 873.126,878.761 870.98,878.061 868.849,877.316 866.733,876.526 
  864.635,875.693 862.555,874.815 860.494,873.894 858.453,872.93 856.432,871.923 854.433,870.874 852.457,869.783 850.503,868.65 848.574,867.477 846.671,866.264 
  844.793,865.011 842.941,863.719 841.118,862.388 839.589,861.227 838.081,860.038 836.595,858.822 835.131,857.58 833.689,856.312 832.27,855.019 830.874,853.7 
  829.502,852.357 828.155,850.989 826.832,849.598 825.534,848.183 824.261,846.745 823.015,845.285 821.794,843.802 820.601,842.298 819.434,840.773 818.098,838.954 
  816.8,837.106 815.541,835.232 814.322,833.332 813.143,831.407 812.004,829.457 810.907,827.484 809.852,825.488 808.839,823.471 807.868,821.433 806.94,819.374 
  806.056,817.297 805.216,815.202 804.42,813.089 803.668,810.96 802.961,808.816 802.354,806.84 801.784,804.852 801.253,802.854 800.761,800.845 800.307,798.828 
  799.892,796.802 799.516,794.769 799.179,792.729 798.882,790.683 798.624,788.631 798.405,786.575 798.227,784.515 798.087,782.452 797.988,780.386 797.928,778.32 
  797.908,776.252 -2210.97,776.252 -2210.33,842.417 -2208.42,908.557 -2205.24,974.648 -2200.79,1040.67 -2195.07,1106.59 -2188.08,1172.38 -2179.82,1238.03 -2170.31,1303.51 
  -2159.53,1368.8 -2147.5,1433.86 -2134.22,1498.68 -2119.7,1563.24 -2103.94,1627.5 -2086.94,1691.45 -2068.72,1755.06 -2049.28,1818.3 -2026.66,1886.92 -2002.61,1955.04 
  -1977.14,2022.64 -1950.24,2089.7 -1921.95,2156.17 -1892.27,2222.03 -1861.2,2287.26 -1828.78,2351.82 -1795.01,2415.68 -1759.9,2478.82 -1723.47,2541.21 -1685.74,2602.82 
  -1646.73,2663.62 -1606.44,2723.59 -1564.91,2782.7 -1522.14,2840.93 -1484.81,2889.73 -1446.62,2937.86 -1407.57,2985.29 -1367.68,3032.03 -1326.96,3078.04 -1285.43,3123.32 
  -1243.09,3167.84 -1199.97,3211.61 -1156.07,3254.6 -1111.41,3296.79 -1066,3338.18 -1019.86,3378.75 -973.004,3418.5 -925.444,3457.4 -877.197,3495.44 -828.278,3532.61 
  -769.919,3575.2 -710.678,3616.55 -650.582,3656.64 -589.656,3695.47 -527.929,3733 -465.426,3769.23 -402.177,3804.14 -338.207,3837.71 -273.547,3869.94 -208.224,3900.79 
  -142.267,3930.27 -75.7058,3958.35 -8.56894,3985.04 59.1136,4010.3 127.312,4034.14 195.996,4056.54 258.655,4075.59 321.666,4093.45 385.006,4110.1 448.651,4125.55 
  512.579,4139.78 576.766,4152.79 641.189,4164.57 705.825,4175.13 770.651,4184.45 835.642,4192.54 900.775,4199.39 966.028,4204.99 1031.37,4209.36 1096.79,4212.47 
  1162.26,4214.34 1227.75,4214.97 1293.91,4214.33 1360.05,4212.42 1426.14,4209.24 1492.16,4204.79 1558.08,4199.07 1623.88,4192.08 1689.53,4183.82 1755.01,4174.31 
  1820.29,4163.53 1885.36,4151.5 1950.18,4138.22 2014.73,4123.7 2079,4107.94 2142.95,4090.94 2206.55,4072.72 2269.8,4053.28 2338.41,4030.66 2406.54,4006.61 
  2474.14,3981.14 2541.19,3954.24 2607.67,3925.95 2673.53,3896.27 2738.75,3865.2 2803.31,3832.78 2867.18,3799.01 2930.32,3763.9 2992.71,3727.47 3054.31,3689.74 
  3115.12,3650.73 3175.09,3610.44 3234.2,3568.91 3292.42,3526.14 3341.23,3488.81 3389.35,3450.62 3436.79,3411.57 3483.52,3371.68 3529.53,3330.96 3574.81,3289.43 
  3619.34,3247.09 3663.1,3203.97 3706.09,3160.07 3748.29,3115.41 3789.68,3070 3830.25,3023.86 3869.99,2977 3908.89,2929.44 3946.93,2881.2 3984.11,2832.28 
  4026.69,2773.92 4068.04,2714.68 4108.14,2654.58 4146.96,2593.66 4184.5,2531.93 4220.73,2469.43 4255.64,2406.18 4289.21,2342.21 4321.43,2277.55 4352.29,2212.22 
  4381.77,2146.27 4409.85,2079.71 4436.53,2012.57 4461.8,1944.89 4485.63,1876.69 4508.03,1808 4527.09,1745.34 4544.94,1682.33 4561.6,1618.99 4577.04,1555.35 
  4591.27,1491.42 4604.28,1427.23 4616.07,1362.81 4626.63,1298.17 4635.95,1233.35 4644.04,1168.36 4650.88,1103.22 4656.49,1037.97 4660.85,972.625 4663.97,907.207 
  4665.84,841.741 4666.46,776.252 4666.46,776.252 4665.83,710.087 4663.92,643.947 4660.74,577.856 4656.28,511.839 4650.56,445.919 4643.57,380.121 4635.32,314.471 
  4625.8,248.991 4615.03,183.706 4603,118.641 4589.72,53.8195 4575.2,-10.7347 4559.44,-74.9976 4542.44,-138.945 4524.22,-202.554 4504.77,-265.8 4482.16,-334.414 
  4458.11,-402.537 4432.63,-470.14 4405.74,-537.192 4377.45,-603.665 4347.76,-669.529 4316.7,-734.755 4284.28,-799.314 4250.5,-863.177 4215.39,-926.317 4178.97,-988.705 
  4141.24,-1050.31 4102.22,-1111.12 4061.94,-1171.09 4020.4,-1230.2 3977.64,-1288.42 3940.31,-1337.23 3902.11,-1385.35 3863.07,-1432.79 3823.18,-1479.52 3782.46,-1525.53 
  3740.93,-1570.81 3698.59,-1615.34 3655.47,-1659.1 3611.57,-1702.09 3566.9,-1744.29 3521.5,-1785.68 3475.36,-1826.25 3428.5,-1865.99 3380.94,-1904.89 3332.69,-1942.93 
  3283.77,-1980.11 3225.41,-2022.69 3166.17,-2064.04 3106.08,-2104.14 3045.15,-2142.96 2983.42,-2180.5 2920.92,-2216.73 2857.67,-2251.64 2793.7,-2285.21 2729.04,-2317.43 
  2663.72,-2348.29 2597.76,-2377.77 2531.2,-2405.85 2464.07,-2432.53 2396.38,-2457.8 2328.18,-2481.63 2259.5,-2504.03 2196.84,-2523.09 2133.83,-2540.94 2070.49,-2557.6 
  2006.85,-2573.04 1942.92,-2587.27 1878.73,-2600.28 1814.31,-2612.07 1749.67,-2622.63 1684.85,-2631.95 1619.85,-2640.04 1554.72,-2646.88 1489.47,-2652.49 1424.12,-2656.85 
  1358.7,-2659.97 1293.24,-2661.84 1227.75,-2662.46 1161.58,-2661.83 1095.44,-2659.92 1029.35,-2656.74 963.335,-2652.28 897.415,-2646.56 831.617,-2639.57 765.967,-2631.32 
  700.487,-2621.8 635.202,-2611.03 570.137,-2599 505.316,-2585.72 440.761,-2571.2 376.499,-2555.44 312.551,-2538.44 248.942,-2520.22 185.696,-2500.77 117.082,-2478.16 
  48.9593,-2454.11 -18.6435,-2428.63 -85.6962,-2401.74 -152.169,-2373.45 -218.033,-2343.76 -283.259,-2312.7 -347.818,-2280.28 -411.681,-2246.5 -474.821,-2211.39 -537.209,-2174.97 
  -598.818,-2137.24 -659.621,-2098.22 -719.591,-2057.94 -778.702,-2016.4 -836.927,-1973.64 -885.729,-1936.31 -933.857,-1898.11 -981.294,-1859.07 -1028.03,-1819.18 -1074.04,-1778.46 
  -1119.32,-1736.93 -1163.84,-1694.59 -1207.61,-1651.47 -1250.6,-1607.57 -1292.79,-1562.9 -1334.18,-1517.5 -1374.75,-1471.36 -1414.5,-1424.5 -1453.4,-1376.94 -1491.44,-1328.69 
  -1528.61,-1279.77 -1571.2,-1221.41 -1612.55,-1162.17 -1652.64,-1102.08 -1691.47,-1041.15 -1729,-979.425 -1765.23,-916.922 -1800.14,-853.673 -1833.71,-789.703 -1865.94,-725.043 
  -1896.79,-659.72 -1926.27,-593.763 -1954.35,-527.202 -1981.04,-460.065 -2006.3,-392.383 -2030.14,-324.184 -2052.54,-255.5 -2071.59,-192.841 -2089.45,-129.83 -2106.1,-66.4905 
  -2121.55,-2.84532 -2135.78,61.0825 -2148.79,125.27 -2160.57,189.693 -2171.13,254.329 -2180.45,319.155 -2188.54,384.146 -2195.39,449.279 -2200.99,514.531 -2205.36,579.878 
  -2208.47,645.297 -2210.34,710.762 -2210.97,776.252 
  "/>
<polyline clip-path="url(#clip9902)" style="stroke:#000000; stroke-width:8; stroke-opacity:1; fill:none" points="
  4666.46,776.252 4665.83,710.087 4663.92,643.947 4660.74,577.856 4656.28,511.839 4650.56,445.919 4643.57,380.121 4635.32,314.471 4625.8,248.991 4615.03,183.706 
  4603,118.641 4589.72,53.8195 4575.2,-10.7347 4559.44,-74.9976 4542.44,-138.945 4524.22,-202.554 4504.77,-265.8 4482.16,-334.414 4458.11,-402.537 4432.63,-470.14 
  4405.74,-537.192 4377.45,-603.665 4347.76,-669.529 4316.7,-734.755 4284.28,-799.314 4250.5,-863.177 4215.39,-926.317 4178.97,-988.705 4141.24,-1050.31 4102.22,-1111.12 
  4061.94,-1171.09 4020.4,-1230.2 3977.64,-1288.42 3940.31,-1337.23 3902.11,-1385.35 3863.07,-1432.79 3823.18,-1479.52 3782.46,-1525.53 3740.93,-1570.81 3698.59,-1615.34 
  3655.47,-1659.1 3611.57,-1702.09 3566.9,-1744.29 3521.5,-1785.68 3475.36,-1826.25 3428.5,-1865.99 3380.94,-1904.89 3332.69,-1942.93 3283.77,-1980.11 3225.41,-2022.69 
  3166.17,-2064.04 3106.08,-2104.14 3045.15,-2142.96 2983.42,-2180.5 2920.92,-2216.73 2857.67,-2251.64 2793.7,-2285.21 2729.04,-2317.43 2663.72,-2348.29 2597.76,-2377.77 
  2531.2,-2405.85 2464.07,-2432.53 2396.38,-2457.8 2328.18,-2481.63 2259.5,-2504.03 2196.84,-2523.09 2133.83,-2540.94 2070.49,-2557.6 2006.85,-2573.04 1942.92,-2587.27 
  1878.73,-2600.28 1814.31,-2612.07 1749.67,-2622.63 1684.85,-2631.95 1619.85,-2640.04 1554.72,-2646.88 1489.47,-2652.49 1424.12,-2656.85 1358.7,-2659.97 1293.24,-2661.84 
  1227.75,-2662.46 1161.58,-2661.83 1095.44,-2659.92 1029.35,-2656.74 963.335,-2652.28 897.415,-2646.56 831.617,-2639.57 765.967,-2631.32 700.487,-2621.8 635.202,-2611.03 
  570.137,-2599 505.316,-2585.72 440.761,-2571.2 376.499,-2555.44 312.551,-2538.44 248.942,-2520.22 185.696,-2500.77 117.082,-2478.16 48.9593,-2454.11 -18.6435,-2428.63 
  -85.6962,-2401.74 -152.169,-2373.45 -218.033,-2343.76 -283.259,-2312.7 -347.818,-2280.28 -411.681,-2246.5 -474.821,-2211.39 -537.209,-2174.97 -598.818,-2137.24 -659.621,-2098.22 
  -719.591,-2057.94 -778.702,-2016.4 -836.927,-1973.64 -885.729,-1936.31 -933.857,-1898.11 -981.294,-1859.07 -1028.03,-1819.18 -1074.04,-1778.46 -1119.32,-1736.93 -1163.84,-1694.59 
  -1207.61,-1651.47 -1250.6,-1607.57 -1292.79,-1562.9 -1334.18,-1517.5 -1374.75,-1471.36 -1414.5,-1424.5 -1453.4,-1376.94 -1491.44,-1328.69 -1528.61,-1279.77 -1571.2,-1221.41 
  -1612.55,-1162.17 -1652.64,-1102.08 -1691.47,-1041.15 -1729,-979.425 -1765.23,-916.922 -1800.14,-853.673 -1833.71,-789.703 -1865.94,-725.043 -1896.79,-659.72 -1926.27,-593.763 
  -1954.35,-527.202 -1981.04,-460.065 -2006.3,-392.383 -2030.14,-324.184 -2052.54,-255.5 -2071.59,-192.841 -2089.45,-129.83 -2106.1,-66.4905 -2121.55,-2.84532 -2135.78,61.0825 
  -2148.79,125.27 -2160.57,189.693 -2171.13,254.329 -2180.45,319.155 -2188.54,384.146 -2195.39,449.279 -2200.99,514.531 -2205.36,579.878 -2208.47,645.297 -2210.34,710.762 
  -2210.97,776.252 -2210.33,842.417 -2208.42,908.557 -2205.24,974.648 -2200.79,1040.67 -2195.07,1106.59 -2188.08,1172.38 -2179.82,1238.03 -2170.31,1303.51 -2159.53,1368.8 
  -2147.5,1433.86 -2134.22,1498.68 -2119.7,1563.24 -2103.94,1627.5 -2086.94,1691.45 -2068.72,1755.06 -2049.28,1818.3 -2026.66,1886.92 -2002.61,1955.04 -1977.14,2022.64 
  -1950.24,2089.7 -1921.95,2156.17 -1892.27,2222.03 -1861.2,2287.26 -1828.78,2351.82 -1795.01,2415.68 -1759.9,2478.82 -1723.47,2541.21 -1685.74,2602.82 -1646.73,2663.62 
  -1606.44,2723.59 -1564.91,2782.7 -1522.14,2840.93 -1484.81,2889.73 -1446.62,2937.86 -1407.57,2985.29 -1367.68,3032.03 -1326.96,3078.04 -1285.43,3123.32 -1243.09,3167.84 
  -1199.97,3211.61 -1156.07,3254.6 -1111.41,3296.79 -1066,3338.18 -1019.86,3378.75 -973.004,3418.5 -925.444,3457.4 -877.197,3495.44 -828.278,3532.61 -769.919,3575.2 
  -710.678,3616.55 -650.582,3656.64 -589.656,3695.47 -527.929,3733 -465.426,3769.23 -402.177,3804.14 -338.207,3837.71 -273.547,3869.94 -208.224,3900.79 -142.267,3930.27 
  -75.7058,3958.35 -8.56894,3985.04 59.1136,4010.3 127.312,4034.14 195.996,4056.54 258.655,4075.59 321.666,4093.45 385.006,4110.1 448.651,4125.55 512.579,4139.78 
  576.766,4152.79 641.189,4164.57 705.825,4175.13 770.651,4184.45 835.642,4192.54 900.775,4199.39 966.028,4204.99 1031.37,4209.36 1096.79,4212.47 1162.26,4214.34 
  1227.75,4214.97 1293.91,4214.33 1360.05,4212.42 1426.14,4209.24 1492.16,4204.79 1558.08,4199.07 1623.88,4192.08 1689.53,4183.82 1755.01,4174.31 1820.29,4163.53 
  1885.36,4151.5 1950.18,4138.22 2014.73,4123.7 2079,4107.94 2142.95,4090.94 2206.55,4072.72 2269.8,4053.28 2338.41,4030.66 2406.54,4006.61 2474.14,3981.14 
  2541.19,3954.24 2607.67,3925.95 2673.53,3896.27 2738.75,3865.2 2803.31,3832.78 2867.18,3799.01 2930.32,3763.9 2992.71,3727.47 3054.31,3689.74 3115.12,3650.73 
  3175.09,3610.44 3234.2,3568.91 3292.42,3526.14 3341.23,3488.81 3389.35,3450.62 3436.79,3411.57 3483.52,3371.68 3529.53,3330.96 3574.81,3289.43 3619.34,3247.09 
  3663.1,3203.97 3706.09,3160.07 3748.29,3115.41 3789.68,3070 3830.25,3023.86 3869.99,2977 3908.89,2929.44 3946.93,2881.2 3984.11,2832.28 4026.69,2773.92 
  4068.04,2714.68 4108.14,2654.58 4146.96,2593.66 4184.5,2531.93 4220.73,2469.43 4255.64,2406.18 4289.21,2342.21 4321.43,2277.55 4352.29,2212.22 4381.77,2146.27 
  4409.85,2079.71 4436.53,2012.57 4461.8,1944.89 4485.63,1876.69 4508.03,1808 4527.09,1745.34 4544.94,1682.33 4561.6,1618.99 4577.04,1555.35 4591.27,1491.42 
  4604.28,1427.23 4616.07,1362.81 4626.63,1298.17 4635.95,1233.35 4644.04,1168.36 4650.88,1103.22 4656.49,1037.97 4660.85,972.625 4663.97,907.207 4665.84,841.741 
  4666.46,776.252 
  "/>
<polyline clip-path="url(#clip9902)" style="stroke:#000000; stroke-width:8; stroke-opacity:1; fill:none" points="
  1012.83,776.252 1012.81,774.184 1012.75,772.117 1012.65,770.052 1012.51,767.989 1012.33,765.929 1012.11,763.873 1011.85,761.821 1011.56,759.775 1011.22,757.735 
  1010.84,755.702 1010.43,753.676 1009.98,751.659 1009.48,749.65 1008.95,747.652 1008.38,745.664 1007.78,743.688 1007.07,741.544 1006.32,739.415 1005.52,737.302 
  1004.68,735.207 1003.8,733.13 1002.87,731.071 1001.9,729.033 1000.88,727.016 999.829,725.02 998.732,723.047 997.594,721.097 996.415,719.172 995.196,717.272 
  993.937,715.398 992.639,713.55 991.302,711.731 990.136,710.206 988.942,708.702 987.722,707.219 986.476,705.759 985.203,704.321 983.905,702.906 982.582,701.515 
  981.235,700.147 979.863,698.804 978.467,697.485 977.048,696.192 975.606,694.924 974.142,693.682 972.656,692.466 971.148,691.277 969.619,690.116 967.795,688.785 
  965.944,687.493 964.066,686.24 962.162,685.027 960.233,683.854 958.28,682.721 956.304,681.63 954.304,680.581 952.284,679.574 950.242,678.61 948.181,677.689 
  946.101,676.811 944.003,675.977 941.888,675.188 939.757,674.443 937.611,673.743 935.653,673.148 933.683,672.59 931.704,672.069 929.715,671.586 927.717,671.142 
  925.712,670.735 923.698,670.367 921.678,670.037 919.653,669.746 917.622,669.493 915.586,669.279 913.547,669.104 911.505,668.967 909.461,668.87 907.415,668.812 
  905.368,668.792 903.301,668.812 901.234,668.872 899.169,668.971 897.105,669.11 895.045,669.289 892.989,669.507 890.938,669.765 888.891,670.063 886.851,670.399 
  884.818,670.775 882.792,671.19 880.775,671.644 878.767,672.137 876.768,672.668 874.781,673.237 872.804,673.845 870.66,674.552 868.531,675.303 866.419,676.099 
  864.323,676.94 862.246,677.824 860.188,678.752 858.149,679.722 856.132,680.735 854.136,681.791 852.163,682.888 850.213,684.026 848.288,685.205 846.388,686.425 
  844.514,687.683 842.667,688.981 840.847,690.318 839.322,691.484 837.818,692.678 836.336,693.898 834.875,695.145 833.438,696.417 832.023,697.715 830.631,699.038 
  829.263,700.386 827.92,701.758 826.602,703.153 825.308,704.572 824.04,706.014 822.798,707.478 821.583,708.965 820.394,710.472 819.232,712.001 817.901,713.825 
  816.609,715.676 815.356,717.554 814.143,719.458 812.97,721.387 811.838,723.34 810.747,725.317 809.698,727.316 808.691,729.336 807.726,731.378 806.805,733.439 
  805.928,735.519 805.094,737.617 804.304,739.732 803.559,741.863 802.86,744.01 802.264,745.968 801.706,747.937 801.186,749.916 800.703,751.905 800.258,753.903 
  799.852,755.909 799.483,757.922 799.153,759.942 798.862,761.968 798.609,763.999 798.395,766.034 798.22,768.073 798.084,770.115 797.986,772.16 797.928,774.205 
  797.908,776.252 797.928,778.32 797.988,780.386 798.087,782.452 798.227,784.515 798.405,786.575 798.624,788.631 798.882,790.683 799.179,792.729 799.516,794.769 
  799.892,796.802 800.307,798.828 800.761,800.845 801.253,802.854 801.784,804.852 802.354,806.84 802.961,808.816 803.668,810.96 804.42,813.089 805.216,815.202 
  806.056,817.297 806.94,819.374 807.868,821.433 808.839,823.471 809.852,825.488 810.907,827.484 812.004,829.457 813.143,831.407 814.322,833.332 815.541,835.232 
  816.8,837.106 818.098,838.954 819.434,840.773 820.601,842.298 821.794,843.802 823.015,845.285 824.261,846.745 825.534,848.183 826.832,849.598 828.155,850.989 
  829.502,852.357 830.874,853.7 832.27,855.019 833.689,856.312 835.131,857.58 836.595,858.822 838.081,860.038 839.589,861.227 841.118,862.388 842.941,863.719 
  844.793,865.011 846.671,866.264 848.574,867.477 850.503,868.65 852.457,869.783 854.433,870.874 856.432,871.923 858.453,872.93 860.494,873.894 862.555,874.815 
  864.635,875.693 866.733,876.526 868.849,877.316 870.98,878.061 873.126,878.761 875.084,879.356 877.053,879.914 879.033,880.435 881.022,880.917 883.019,881.362 
  885.025,881.769 887.038,882.137 889.058,882.467 891.084,882.758 893.115,883.011 895.15,883.225 897.19,883.4 899.232,883.536 901.276,883.634 903.322,883.692 
  905.368,883.712 907.436,883.692 909.503,883.632 911.568,883.533 913.631,883.394 915.691,883.215 917.747,882.996 919.799,882.739 921.845,882.441 923.885,882.104 
  925.919,881.729 927.944,881.314 929.962,880.86 931.97,880.367 933.968,879.836 935.956,879.267 937.933,878.659 940.077,877.952 942.206,877.201 944.318,876.405 
  946.414,875.564 948.491,874.68 950.549,873.752 952.587,872.782 954.605,871.768 956.601,870.713 958.574,869.616 960.523,868.478 962.449,867.299 964.349,866.079 
  966.223,864.82 968.07,863.522 969.889,862.186 971.415,861.019 972.919,859.826 974.401,858.606 975.861,857.359 977.299,856.087 978.714,854.789 980.106,853.466 
  981.473,852.118 982.817,850.746 984.135,849.351 985.429,847.932 986.697,846.49 987.939,845.025 989.154,843.539 990.343,842.031 991.505,840.503 992.835,838.679 
  994.128,836.828 995.381,834.95 996.594,833.046 997.767,831.117 998.899,829.164 999.99,827.187 1001.04,825.188 1002.05,823.167 1003.01,821.126 1003.93,819.065 
  1004.81,816.985 1005.64,814.887 1006.43,812.772 1007.18,810.641 1007.88,808.494 1008.47,806.536 1009.03,804.567 1009.55,802.588 1010.03,800.599 1010.48,798.601 
  1010.89,796.595 1011.25,794.582 1011.58,792.562 1011.87,790.536 1012.13,788.505 1012.34,786.47 1012.52,784.431 1012.65,782.389 1012.75,780.344 1012.81,778.299 
  1012.83,776.252 
  "/>
<polyline clip-path="url(#clip9902)" style="stroke:#000000; stroke-width:8; stroke-opacity:1; fill:none" points="
  1335.21,776.252 1227.75,668.792 1120.29,776.252 1227.75,883.712 1335.21,776.252 
  "/>
<polyline clip-path="url(#clip9902)" style="stroke:#000000; stroke-width:8; stroke-opacity:1; fill:none" points="
  1657.59,776.252 1496.4,683.189 1496.4,869.315 1657.59,776.252 
  "/>
</svg>
